<svg width="630" height="405" viewBox="0 0 630 405" fill="none" xmlns="http://www.w3.org/2000/svg">
<path d="M613.938 261.821C605.739 218.648 589.13 176.392 569.157 138.399C536.745 76.7121 488.241 22.4509 423.741 6.30323C277.59 -30.2934 246.167 129.935 213.256 151.073C180.345 172.211 98.5001 160.834 53.9467 228.348C9.39336 295.863 14.4829 402.399 14.4829 402.399H620.316C621.7 355.294 622.672 307.799 613.938 261.821Z" fill="#0658F6"/>
<path opacity="0.7" d="M613.938 261.821C605.739 218.648 589.13 176.392 569.157 138.399C536.745 76.7121 488.241 22.4509 423.741 6.30323C277.59 -30.2934 246.167 129.935 213.256 151.073C180.345 172.211 98.5001 160.834 53.9467 228.348C9.39336 295.863 14.4829 402.399 14.4829 402.399H620.316C621.7 355.294 622.672 307.799 613.938 261.821Z" fill="#666F98"/>
<path d="M590.961 277.709C590.97 277.693 590.975 277.674 590.975 277.655C590.975 277.635 590.97 277.616 590.961 277.6C590.948 277.586 590.931 277.578 590.913 277.578C590.895 277.578 590.878 277.586 590.865 277.6C588.625 283.655 586.849 289.919 585.556 296.322C584.279 302.713 583.317 309.18 582.674 315.693L582.262 320.583C582.201 321.402 582.122 322.22 582.07 323.039L581.956 325.494C581.894 327.13 581.807 328.767 581.763 330.404V335.324V337.789C581.763 338.607 581.851 339.426 581.894 340.244C582.008 341.881 582.096 343.518 582.227 345.144C582.499 348.408 582.928 351.651 583.375 354.885C583.377 354.904 583.385 354.922 583.398 354.935C583.411 354.948 583.428 354.955 583.445 354.955C583.466 354.955 583.486 354.945 583.501 354.928C583.515 354.911 583.524 354.889 583.524 354.865C583.524 353.218 583.454 351.591 583.419 349.955C583.384 348.318 583.252 346.701 583.278 345.074C583.305 343.448 583.278 341.821 583.226 340.194V337.749V335.314V330.434L583.348 325.563L583.392 323.128C583.392 322.31 583.471 321.502 583.506 320.693L583.769 315.823C584.263 309.336 585.073 302.886 586.195 296.502C587.306 290.093 588.9 283.806 590.961 277.709Z" fill="#263238"/>
<path d="M591.574 303.198C591.585 303.183 591.591 303.163 591.591 303.143C591.591 303.124 591.585 303.104 591.574 303.088C591.554 303.084 591.534 303.088 591.517 303.099C591.499 303.11 591.485 303.127 591.478 303.148C589.013 311.278 587.373 319.703 586.59 328.258C586.213 332.529 585.793 336.801 585.714 341.092C585.616 345.386 585.751 349.682 586.117 353.957C586.117 353.975 586.123 353.993 586.135 354.006C586.146 354.019 586.162 354.026 586.178 354.026C586.188 354.029 586.198 354.03 586.208 354.028C586.218 354.026 586.228 354.021 586.236 354.015C586.244 354.008 586.251 353.999 586.256 353.989C586.261 353.979 586.265 353.968 586.266 353.957C586.704 349.685 586.966 345.424 587.22 341.162C587.474 336.901 587.527 332.639 587.772 328.378C588.006 324.128 588.451 319.896 589.104 315.703C589.726 311.487 590.551 307.312 591.574 303.198Z" fill="#263238"/>
<path d="M603.952 312.17C603.937 312.157 603.918 312.15 603.899 312.15C603.881 312.15 603.862 312.157 603.847 312.17C600.743 314.442 597.948 317.219 595.551 320.414C594.344 322.015 593.26 323.731 592.31 325.544L591.635 326.981L591.119 328.468C590.939 328.959 590.787 329.462 590.663 329.975C590.532 330.484 590.374 330.973 590.26 331.502C589.295 335.575 588.708 339.753 588.508 343.967C588.325 348.161 588.463 352.365 588.92 356.531C588.924 356.55 588.932 356.567 588.945 356.579C588.958 356.592 588.973 356.6 588.99 356.601C589 356.603 589.01 356.602 589.019 356.598C589.029 356.595 589.038 356.589 589.045 356.582C589.053 356.574 589.059 356.565 589.063 356.555C589.067 356.544 589.069 356.533 589.069 356.521L590.015 344.096C590.272 339.985 590.734 335.893 591.399 331.841C591.495 331.342 591.618 330.843 591.732 330.354C591.832 329.856 591.961 329.366 592.117 328.887L592.555 327.45L593.125 326.092C593.99 324.288 594.986 322.569 596.103 320.953C598.333 317.643 600.977 314.724 603.952 312.29C603.959 312.283 603.965 312.273 603.97 312.263C603.974 312.253 603.976 312.242 603.976 312.23C603.976 312.219 603.974 312.208 603.97 312.197C603.965 312.187 603.959 312.178 603.952 312.17Z" fill="#263238"/>
<path d="M597.978 328.138C596.364 329.474 595.069 331.247 594.211 333.298C593.302 335.315 592.591 337.44 592.091 339.635C591.942 340.174 591.828 340.723 591.723 341.272L591.381 342.929C591.202 344.037 591.079 345.157 591.013 346.282C591.013 347.41 591.013 348.537 591.013 349.665C591.089 350.791 591.22 351.91 591.408 353.018C591.41 353.034 591.416 353.049 591.425 353.062C591.435 353.074 591.447 353.083 591.46 353.088C591.471 353.091 591.481 353.092 591.492 353.09C591.502 353.088 591.513 353.083 591.522 353.077C591.531 353.07 591.538 353.062 591.544 353.052C591.55 353.042 591.554 353.03 591.557 353.018C591.782 351.928 591.957 350.826 592.082 349.715C592.231 348.617 592.38 347.529 592.494 346.442C592.608 345.354 592.765 344.276 592.836 343.188C592.906 342.1 593.037 341.012 593.247 339.945C593.58 337.794 594.12 335.692 594.859 333.677C595.528 331.621 596.615 329.774 598.03 328.288C598.043 328.272 598.05 328.25 598.05 328.228C598.05 328.206 598.043 328.185 598.03 328.168C598.024 328.159 598.016 328.152 598.007 328.147C597.998 328.142 597.988 328.139 597.978 328.138Z" fill="#263238"/>
<path d="M580.58 340.583C580.177 335.064 579.371 329.605 578.618 324.146C577.865 318.687 577.024 313.238 576.148 307.809C575.272 302.38 574.291 296.961 573.266 291.562C573.264 291.551 573.26 291.541 573.254 291.532C573.249 291.523 573.241 291.516 573.233 291.51C573.225 291.504 573.216 291.501 573.206 291.499C573.197 291.498 573.187 291.499 573.178 291.502C573.168 291.503 573.158 291.506 573.149 291.512C573.141 291.518 573.133 291.526 573.127 291.535C573.121 291.545 573.117 291.556 573.116 291.567C573.114 291.579 573.114 291.59 573.117 291.601C573.993 297.041 574.694 302.49 575.403 307.949C576.113 313.408 576.814 318.867 577.418 324.346C578.022 329.825 578.478 335.324 579.074 340.763L580.826 357.19C580.827 357.21 580.835 357.23 580.848 357.244C580.861 357.259 580.878 357.268 580.896 357.27C580.915 357.27 580.934 357.262 580.949 357.247C580.963 357.232 580.972 357.212 580.975 357.19C581.027 355.803 581.027 354.416 581.062 353.028C581.097 351.641 581.01 350.264 580.992 348.877C580.974 346.102 580.764 343.348 580.58 340.583Z" fill="#263238"/>
<path d="M577.672 340.503C577.409 338.318 577.059 336.152 576.691 333.987L576.008 330.763C575.789 329.685 575.578 328.607 575.298 327.549C574.334 323.271 573.099 319.079 571.601 315.005L571.014 313.488L570.375 312.001C569.963 311.003 569.499 310.005 568.991 309.086C568.043 307.15 566.864 305.374 565.487 303.807C565.481 303.799 565.474 303.792 565.465 303.787C565.457 303.783 565.448 303.78 565.439 303.78C565.429 303.78 565.42 303.783 565.412 303.787C565.404 303.792 565.396 303.799 565.391 303.807C565.383 303.815 565.377 303.824 565.373 303.834C565.369 303.844 565.367 303.856 565.367 303.867C565.367 303.878 565.369 303.889 565.373 303.9C565.377 303.91 565.383 303.919 565.391 303.927C566.664 305.555 567.74 307.371 568.588 309.326C569.008 310.324 569.464 311.272 569.814 312.32L570.384 313.827L570.892 315.354C572.249 319.433 573.344 323.619 574.168 327.879C574.615 330.005 574.904 332.17 575.263 334.306L575.719 337.539C575.885 338.617 576.087 339.685 576.218 340.763C576.516 342.919 576.866 345.074 577.199 347.23C577.532 349.386 577.839 351.561 578.241 353.717C578.244 353.736 578.252 353.754 578.265 353.767C578.278 353.78 578.294 353.787 578.312 353.787C578.321 353.788 578.331 353.787 578.341 353.784C578.351 353.781 578.359 353.775 578.367 353.767C578.374 353.76 578.38 353.75 578.384 353.74C578.388 353.73 578.39 353.718 578.39 353.707C578.39 351.505 578.344 349.299 578.25 347.09C578.11 344.895 577.882 342.699 577.672 340.503Z" fill="#263238"/>
<path d="M573.669 340.793C572.793 337.889 571.733 335.064 570.603 332.28C569.457 329.512 568.17 326.823 566.748 324.226C566.733 324.213 566.715 324.206 566.696 324.206C566.677 324.206 566.658 324.213 566.643 324.226C566.636 324.234 566.63 324.243 566.626 324.253C566.622 324.263 566.62 324.275 566.62 324.286C566.62 324.297 566.622 324.309 566.626 324.319C566.63 324.329 566.636 324.338 566.643 324.346C567.883 327.038 568.983 329.81 569.937 332.649C570.918 335.474 571.803 338.338 572.565 341.252C573.327 344.166 573.861 347.12 574.545 350.034C575.228 352.949 575.832 355.903 576.621 358.857C576.626 358.873 576.635 358.888 576.648 358.899C576.66 358.909 576.675 358.916 576.691 358.917C576.71 358.917 576.729 358.909 576.744 358.894C576.758 358.879 576.768 358.859 576.77 358.837C576.8 355.755 576.548 352.677 576.016 349.655C575.448 346.633 574.663 343.669 573.669 340.793Z" fill="#263238"/>
<path d="M573.502 350.434C573.008 348.627 572.292 346.91 571.374 345.334C570.511 343.72 569.466 342.244 568.264 340.943C567.649 340.309 566.986 339.738 566.284 339.236C565.593 338.73 564.841 338.343 564.05 338.088C564.033 338.082 564.014 338.084 563.998 338.093C563.981 338.102 563.969 338.119 563.963 338.138C563.95 338.153 563.943 338.173 563.943 338.193C563.943 338.214 563.95 338.233 563.963 338.248C565.393 339.031 566.66 340.154 567.677 341.541C568.724 342.888 569.608 344.388 570.305 346.003C571.041 347.589 571.417 349.336 572.057 350.993C572.346 351.831 572.626 352.669 572.933 353.507C573.202 354.382 573.527 355.232 573.905 356.052C573.911 356.07 573.921 356.085 573.934 356.096C573.947 356.107 573.963 356.113 573.98 356.113C573.996 356.113 574.012 356.107 574.025 356.096C574.039 356.085 574.049 356.07 574.054 356.052C574.079 355.113 574.047 354.172 573.958 353.238C573.87 352.27 573.695 351.352 573.502 350.434Z" fill="#263238"/>
<path d="M573.8 299.466C571.38 298.696 569.191 297.188 567.47 295.103C565.748 293.019 564.56 290.438 564.033 287.639C562.202 277.899 568.106 282.081 562.815 266.771C557.524 251.462 558.742 247.999 560.572 243.588C562.403 239.177 563.428 240.594 565.049 246.372C566.669 252.151 572.582 261.212 574.816 278.139C577.05 295.065 573.8 299.466 573.8 299.466Z" fill="#0658F6"/>
<path d="M589.472 282.999C589.472 282.999 584.216 280.913 583.979 269.556C583.743 258.198 587.842 260.514 588.456 246.372C589.069 232.231 589.875 222.26 592.117 222.031C594.36 221.801 600.255 229.017 602.288 244.755C604.32 260.494 599.66 270.953 595.577 275.584C591.495 280.214 589.472 282.999 589.472 282.999Z" fill="#0658F6"/>
<path d="M570.953 313.138C570.953 313.138 569.735 304.795 567.291 300.853C564.847 296.911 559.556 293.438 556.096 285.783C552.636 278.129 548.773 274.426 548.974 285.324C549.176 296.222 553.451 301.781 558.742 305.494C564.033 309.206 570.953 313.138 570.953 313.138Z" fill="#0658F6"/>
<path d="M568.711 327.52C568.711 327.52 563.831 316.851 556.709 308.967C549.587 301.083 543.885 297.14 545.926 301.083C547.967 305.025 550.402 304.795 553.862 311.751C557.322 318.707 556.298 323.807 561.186 327.719C566.074 331.631 568.711 327.52 568.711 327.52Z" fill="#0658F6"/>
<path d="M568.106 341.232C567.905 340.533 567.694 335.434 560.783 331.252C553.871 327.07 547.345 328.707 548.16 330.793C548.974 332.879 553.249 336.352 557.524 338.438C561.799 340.523 568.106 341.232 568.106 341.232Z" fill="#0658F6"/>
<path d="M589.06 313.607C589.06 313.607 586.012 309.196 587.641 299.925C589.27 290.653 592.897 292.939 596.997 288.109C601.096 283.278 600.255 282.54 604.329 277.44C608.402 272.34 612.055 269.556 613.684 271.642C615.314 273.727 612.87 280.224 610.434 283.927C607.999 287.63 604.118 289.496 602.288 294.126C600.457 298.757 601.271 306.182 596.594 309.665C591.916 313.148 589.06 313.607 589.06 313.607Z" fill="#0658F6"/>
<path d="M599.239 316.152C599.239 316.152 606.563 306.651 611.854 299.695C617.145 292.739 619.177 287.41 619.387 292.041C619.597 296.671 621.218 300.394 616.943 306.422C612.668 312.45 599.239 316.152 599.239 316.152Z" fill="#0658F6"/>
<path d="M595.376 331.452C595.376 331.452 595.166 327.749 606.764 319.166C618.362 310.584 623.25 308.967 622.033 312.45C620.815 315.933 615.725 319.436 610.224 325.663C604.723 331.891 595.376 331.452 595.376 331.452Z" fill="#0658F6"/>
<path d="M574.282 298.478C574.282 298.478 571.566 281.841 568.711 270.025C565.855 258.208 564.033 251.063 564.033 251.063" stroke="#263238" stroke-linecap="round" stroke-linejoin="round"/>
<path d="M588.999 283.178C588.999 283.178 593.948 265.154 595.577 254.236C597.207 243.318 595.376 235.224 594.561 230.354" stroke="#263238" stroke-linecap="round" stroke-linejoin="round"/>
<path d="M570.314 312.789C568.11 308.498 565.59 304.428 562.78 300.623C558.304 294.635 554.843 291.352 552.811 285.554" stroke="#263238" stroke-linecap="round" stroke-linejoin="round"/>
<path d="M589.06 313.607C589.06 313.607 590.689 302.48 594.561 296.641C598.433 290.803 606.16 281.801 609.208 276.013" stroke="#263238" stroke-linecap="round" stroke-linejoin="round"/>
<path d="M567.624 340.943C567.624 340.943 560.783 335.863 555.895 333.078" stroke="#263238" stroke-linecap="round" stroke-linejoin="round"/>
<path d="M589.06 402.36C590.596 402.366 592.079 401.716 593.215 400.537C594.35 399.358 595.056 397.736 595.192 395.992C596.199 382.23 598.328 351.292 597.233 349.775C592.748 343.537 573.432 343.537 568.947 349.775C567.852 351.292 569.972 382.23 570.979 395.992C571.115 397.727 571.814 399.342 572.941 400.52C574.067 401.698 575.539 402.354 577.068 402.36H589.06Z" fill="#0658F6" stroke="#263238" stroke-linecap="round" stroke-linejoin="round"/>
<path d="M565.014 134.137C580.95 134.137 593.869 119.419 593.869 101.263C593.869 83.107 580.95 68.3888 565.014 68.3888C549.077 68.3888 536.158 83.107 536.158 101.263C536.158 119.419 549.077 134.137 565.014 134.137Z" fill="#263238" stroke="#263238" stroke-linecap="round" stroke-linejoin="round"/>
<path d="M583.383 122.184C593.526 110.628 593.526 91.8921 583.383 80.3362C573.239 68.7803 556.794 68.7804 546.651 80.3363C536.507 91.8921 536.507 110.628 546.651 122.184C556.794 133.74 573.239 133.74 583.383 122.184Z" fill="white" stroke="#263238" stroke-linecap="round" stroke-linejoin="round"/>
<path d="M556 101.542L565.014 101.263L572.942 120.275" fill="white"/>
<path d="M556 101.542L565.014 101.263L572.942 120.275" stroke="#263238" stroke-linecap="round" stroke-linejoin="round"/>
<path d="M164.577 31.7522L168.387 36.0436L170.498 32.2312L164.577 31.7522Z" stroke="#263238" stroke-width="0.5" stroke-linecap="round" stroke-linejoin="round"/>
<path d="M116.861 38.9678L120.672 43.2592L122.783 39.4468L116.861 38.9678Z" stroke="#263238" stroke-width="0.5" stroke-linecap="round" stroke-linejoin="round"/>
<path d="M86.8667 21.4828L90.6773 25.7842L92.7797 21.9618L86.8667 21.4828Z" stroke="#263238" stroke-width="0.5" stroke-linecap="round" stroke-linejoin="round"/>
<path d="M207.194 16.6924L204.794 22.1514L208.631 23.2492L207.194 16.6924Z" stroke="#263238" stroke-width="0.5" stroke-linecap="round" stroke-linejoin="round"/>
<path d="M164.866 63.9078L161.134 59.5166L158.953 63.2791L164.866 63.9078Z" stroke="#263238" stroke-width="0.5" stroke-linecap="round" stroke-linejoin="round"/>
<path d="M143.001 65.5445L139.278 61.1533L137.097 64.9158L143.001 65.5445Z" stroke="#263238" stroke-width="0.5" stroke-linecap="round" stroke-linejoin="round"/>
<path d="M190.094 45.9637L194.448 42.4108L191.514 39.4069L190.094 45.9637Z" stroke="#263238" stroke-width="0.5" stroke-linecap="round" stroke-linejoin="round"/>
<path d="M141.004 28.2792L145.366 24.7264L142.414 21.7124L141.004 28.2792Z" stroke="#263238" stroke-width="0.5" stroke-linecap="round" stroke-linejoin="round"/>
<path d="M61.5854 58.7281L60.1663 65.295" stroke="#263238" stroke-width="0.5" stroke-linecap="round" stroke-linejoin="round"/>
<path d="M163.157 91.3129L167.52 87.7601L164.577 84.7461L163.157 91.3129Z" stroke="#263238" stroke-width="0.5" stroke-linecap="round" stroke-linejoin="round"/>
<path d="M279.333 48.7183L283.143 53.0097L285.255 49.1973L279.333 48.7183Z" stroke="#263238" stroke-width="0.5" stroke-linecap="round" stroke-linejoin="round"/>
<path d="M322.353 59.866L319.953 65.335L323.79 66.4228L322.353 59.866Z" stroke="#263238" stroke-width="0.5" stroke-linecap="round" stroke-linejoin="round"/>
<path d="M264.301 30.9739L261.909 36.4329L265.746 37.5307L264.301 30.9739Z" stroke="#263238" stroke-width="0.5" stroke-linecap="round" stroke-linejoin="round"/>
<path d="M346.715 63.9478L344.323 69.4168L348.16 70.5046L346.715 63.9478Z" stroke="#263238" stroke-width="0.5" stroke-linecap="round" stroke-linejoin="round"/>
<path d="M412.134 3.03979L409.743 8.50883L413.58 9.59665L412.134 3.03979Z" stroke="#263238" stroke-width="0.5" stroke-linecap="round" stroke-linejoin="round"/>
<path d="M279.622 68.8978L275.89 64.5066L273.709 68.269L279.622 68.8978Z" stroke="#263238" stroke-width="0.5" stroke-linecap="round" stroke-linejoin="round"/>
<path d="M468.636 68.2391L464.905 63.8479L462.723 67.6104L468.636 68.2391Z" stroke="#263238" stroke-width="0.5" stroke-linecap="round" stroke-linejoin="round"/>
<path d="M304.132 29.0277L308.486 25.4748L305.543 22.4708L304.132 29.0277Z" stroke="#263238" stroke-width="0.5" stroke-linecap="round" stroke-linejoin="round"/>
<path d="M255.76 23.2892L260.122 19.7364L257.17 16.7224L255.76 23.2892Z" stroke="#263238" stroke-width="0.5" stroke-linecap="round" stroke-linejoin="round"/>
<path d="M327.784 36.0138L332.138 32.4609L329.195 29.4569L327.784 36.0138Z" stroke="#263238" stroke-width="0.5" stroke-linecap="round" stroke-linejoin="round"/>
<path d="M439.851 155.265L444.213 151.702L441.27 148.698L439.851 155.265Z" stroke="#263238" stroke-width="0.5" stroke-linecap="round" stroke-linejoin="round"/>
<path d="M85.0447 76.7021L89.3984 73.1492L86.455 70.1453L85.0447 76.7021Z" stroke="#263238" stroke-width="0.5" stroke-linecap="round" stroke-linejoin="round"/>
<path d="M243.277 125.694L239.466 121.393L237.364 125.205L243.277 125.694Z" stroke="#263238" stroke-width="0.5" stroke-linecap="round" stroke-linejoin="round"/>
<path d="M280.191 122.83L276.381 118.538L274.27 122.351L280.191 122.83Z" stroke="#263238" stroke-width="0.5" stroke-linecap="round" stroke-linejoin="round"/>
<path d="M322.178 128.279L318.367 123.977L316.265 127.79L322.178 128.279Z" stroke="#263238" stroke-width="0.5" stroke-linecap="round" stroke-linejoin="round"/>
<path d="M217.969 109.167L220.369 103.708L216.532 102.61L217.969 109.167Z" stroke="#263238" stroke-width="0.5" stroke-linecap="round" stroke-linejoin="round"/>
<path d="M477.011 114.616L479.411 109.157L475.574 108.059L477.011 114.616Z" stroke="#263238" stroke-width="0.5" stroke-linecap="round" stroke-linejoin="round"/>
<path d="M599.353 120.624L601.753 115.155L597.916 114.067L599.353 120.624Z" stroke="#263238" stroke-width="0.5" stroke-linecap="round" stroke-linejoin="round"/>
<path d="M536.15 177.899L538.55 172.44L534.713 171.343L536.15 177.899Z" stroke="#263238" stroke-width="0.5" stroke-linecap="round" stroke-linejoin="round"/>
<path d="M242.996 105.504L246.719 109.896L248.901 106.133L242.996 105.504Z" stroke="#263238" stroke-width="0.5" stroke-linecap="round" stroke-linejoin="round"/>
<path d="M264.853 103.868L268.584 108.259L270.757 104.496L264.853 103.868Z" stroke="#263238" stroke-width="0.5" stroke-linecap="round" stroke-linejoin="round"/>
<path d="M331.314 299.516L335.037 303.907L337.219 300.144L331.314 299.516Z" stroke="#263238" stroke-width="0.5" stroke-linecap="round" stroke-linejoin="round"/>
<path d="M578.574 151.422L574.212 154.975L577.164 157.989L578.574 151.422Z" stroke="#263238" stroke-width="0.5" stroke-linecap="round" stroke-linejoin="round"/>
<path d="M202.166 61.6923L197.803 65.2551L200.747 68.2591L202.166 61.6923Z" stroke="#263238" stroke-width="0.5" stroke-linecap="round" stroke-linejoin="round"/>
<path d="M357.945 106.552L360.336 101.083L356.5 99.9955L357.945 106.552Z" stroke="#263238" stroke-width="0.5" stroke-linecap="round" stroke-linejoin="round"/>
<path d="M333.575 102.471L335.975 97.0015L332.138 95.9137L333.575 102.471Z" stroke="#263238" stroke-width="0.5" stroke-linecap="round" stroke-linejoin="round"/>
<path d="M347.696 104.117L343.333 107.67L346.277 110.684L347.696 104.117Z" stroke="#263238" stroke-width="0.5" stroke-linecap="round" stroke-linejoin="round"/>
<path d="M466.481 23.2394L462.671 18.938L460.56 22.7603L466.481 23.2394Z" stroke="#263238" stroke-width="0.5" stroke-linecap="round" stroke-linejoin="round"/>
<path d="M562.176 189.007L558.365 184.716L556.263 188.528L562.176 189.007Z" stroke="#263238" stroke-width="0.5" stroke-linecap="round" stroke-linejoin="round"/>
<path d="M604.6 198.558L600.79 194.257L598.687 198.069L604.6 198.558Z" stroke="#263238" stroke-width="0.5" stroke-linecap="round" stroke-linejoin="round"/>
<path d="M85.5089 109.546L87.9004 104.077L84.0635 102.99L85.5089 109.546Z" stroke="#263238" stroke-width="0.5" stroke-linecap="round" stroke-linejoin="round"/>
<path d="M500.628 66.0635L503.019 60.6044L499.182 59.5166L500.628 66.0635Z" stroke="#263238" stroke-width="0.5" stroke-linecap="round" stroke-linejoin="round"/>
<path d="M61.1385 105.465L63.5388 99.9955L59.7019 98.9077L61.1385 105.465Z" stroke="#263238" stroke-width="0.5" stroke-linecap="round" stroke-linejoin="round"/>
<path d="M128.24 100.514L131.972 104.906L134.144 101.143L128.24 100.514Z" stroke="#263238" stroke-width="0.5" stroke-linecap="round" stroke-linejoin="round"/>
<path d="M505.963 17.4908L501.6 21.0437L504.543 24.0577L505.963 17.4908Z" stroke="#263238" stroke-width="0.5" stroke-linecap="round" stroke-linejoin="round"/>
<path d="M545.54 60.5945L541.178 64.1474L544.121 67.1613L545.54 60.5945Z" stroke="#263238" stroke-width="0.5" stroke-linecap="round" stroke-linejoin="round"/>
<path d="M70.8972 110.674L73.8406 113.678" stroke="#263238" stroke-width="0.5" stroke-linecap="round" stroke-linejoin="round"/>
<path d="M299.884 89.5365L295.521 93.0894L298.465 96.0934L299.884 89.5365Z" stroke="#263238" stroke-width="0.5" stroke-linecap="round" stroke-linejoin="round"/>
<path d="M539.566 217.5L543.385 221.801L545.488 217.989L539.566 217.5Z" stroke="#263238" stroke-width="0.5" stroke-linecap="round" stroke-linejoin="round"/>
<path d="M85.6753 140.943L89.4947 145.235L91.5971 141.422L85.6753 140.943Z" stroke="#263238" stroke-width="0.5" stroke-linecap="round" stroke-linejoin="round"/>
<path d="M506.62 97.3208L504.219 102.79L508.056 103.878L506.62 97.3208Z" stroke="#263238" stroke-width="0.5" stroke-linecap="round" stroke-linejoin="round"/>
<path d="M599.353 253.179L601.753 247.719L597.916 246.622L599.353 253.179Z" stroke="#263238" stroke-width="0.5" stroke-linecap="round" stroke-linejoin="round"/>
<path d="M536.15 310.464L538.55 304.995L534.713 303.907L536.15 310.464Z" stroke="#263238" stroke-width="0.5" stroke-linecap="round" stroke-linejoin="round"/>
<path d="M578.574 283.987L574.212 287.54L577.164 290.544L578.574 283.987Z" stroke="#263238" stroke-width="0.5" stroke-linecap="round" stroke-linejoin="round"/>
<path d="M562.176 321.571L558.365 317.28L556.263 321.092L562.176 321.571Z" stroke="#263238" stroke-width="0.5" stroke-linecap="round" stroke-linejoin="round"/>
<path d="M506.62 229.885L504.219 235.344L508.056 236.442L506.62 229.885Z" stroke="#263238" stroke-width="0.5" stroke-linecap="round" stroke-linejoin="round"/>
<path d="M164.866 163.708L161.134 159.317L158.953 163.079L164.866 163.708Z" stroke="#263238" stroke-width="0.5" stroke-linecap="round" stroke-linejoin="round"/>
<path d="M143.001 165.345L139.278 160.953L137.097 164.716L143.001 165.345Z" stroke="#263238" stroke-width="0.5" stroke-linecap="round" stroke-linejoin="round"/>
<path d="M111.474 149.017L107.742 144.626L105.561 148.389L111.474 149.017Z" stroke="#263238" stroke-width="0.5" stroke-linecap="round" stroke-linejoin="round"/>
<path d="M190.094 145.774L194.448 142.211L191.514 139.207L190.094 145.774Z" stroke="#263238" stroke-width="0.5" stroke-linecap="round" stroke-linejoin="round"/>
<path d="M233.719 157.72L238.082 154.167L235.139 151.153L233.719 157.72Z" stroke="#263238" stroke-width="0.5" stroke-linecap="round" stroke-linejoin="round"/>
<path d="M74.2787 166.742L71.8872 172.211L75.7241 173.299L74.2787 166.742Z" stroke="#263238" stroke-width="0.5" stroke-linecap="round" stroke-linejoin="round"/>
<path d="M163.157 191.113L167.52 187.56L164.577 184.546L163.157 191.113Z" stroke="#263238" stroke-width="0.5" stroke-linecap="round" stroke-linejoin="round"/>
<path d="M409.515 176.871L413.326 181.163L415.437 177.35L409.515 176.871Z" stroke="#263238" stroke-width="0.5" stroke-linecap="round" stroke-linejoin="round"/>
<path d="M322.353 159.666L319.953 165.135L323.79 166.223L322.353 159.666Z" stroke="#263238" stroke-width="0.5" stroke-linecap="round" stroke-linejoin="round"/>
<path d="M358.9 142.929L356.5 148.398L360.336 149.486L358.9 142.929Z" stroke="#263238" stroke-width="0.5" stroke-linecap="round" stroke-linejoin="round"/>
<path d="M385.451 79.9956L381.728 75.6044L379.547 79.3668L385.451 79.9956Z" stroke="#263238" stroke-width="0.5" stroke-linecap="round" stroke-linejoin="round"/>
<path d="M333.364 145.025L329.641 140.634L327.46 144.396L333.364 145.025Z" stroke="#263238" stroke-width="0.5" stroke-linecap="round" stroke-linejoin="round"/>
<path d="M277.914 196.103L282.276 192.55L279.333 189.536L277.914 196.103Z" stroke="#263238" stroke-width="0.5" stroke-linecap="round" stroke-linejoin="round"/>
<path d="M107.978 179.686L112.341 176.123L109.397 173.119L107.978 179.686Z" stroke="#263238" stroke-width="0.5" stroke-linecap="round" stroke-linejoin="round"/>
<path d="M280.191 222.63L276.381 218.338L274.27 222.151L280.191 222.63Z" stroke="#263238" stroke-width="0.5" stroke-linecap="round" stroke-linejoin="round"/>
<path d="M448.278 124.437L450.678 118.977L446.841 117.88L448.278 124.437Z" stroke="#263238" stroke-width="0.5" stroke-linecap="round" stroke-linejoin="round"/>
<path d="M385.267 365.553L389.63 362L386.686 358.996L385.267 365.553Z" stroke="#263238" stroke-width="0.5" stroke-linecap="round" stroke-linejoin="round"/>
<path d="M422.427 324.915L424.819 319.456L420.982 318.358L422.427 324.915Z" stroke="#263238" stroke-width="0.5" stroke-linecap="round" stroke-linejoin="round"/>
<path d="M393.694 334.735L396.095 329.276L392.258 328.178L393.694 334.735Z" stroke="#263238" stroke-width="0.5" stroke-linecap="round" stroke-linejoin="round"/>
<path d="M175.895 210.254L178.295 204.785L174.458 203.698L175.895 210.254Z" stroke="#263238" stroke-width="0.5" stroke-linecap="round" stroke-linejoin="round"/>
<path d="M242.996 205.304L246.719 209.696L248.901 205.933L242.996 205.304Z" stroke="#263238" stroke-width="0.5" stroke-linecap="round" stroke-linejoin="round"/>
<path d="M264.853 203.668L268.584 208.059L270.757 204.296L264.853 203.668Z" stroke="#263238" stroke-width="0.5" stroke-linecap="round" stroke-linejoin="round"/>
<path d="M296.388 219.995L300.111 224.396L302.293 220.634L296.388 219.995Z" stroke="#263238" stroke-width="0.5" stroke-linecap="round" stroke-linejoin="round"/>
<path d="M217.767 223.249L213.405 226.801L216.348 229.805L217.767 223.249Z" stroke="#263238" stroke-width="0.5" stroke-linecap="round" stroke-linejoin="round"/>
<path d="M190.016 211.901L185.653 215.464L188.597 218.468L190.016 211.901Z" stroke="#263238" stroke-width="0.5" stroke-linecap="round" stroke-linejoin="round"/>
<path d="M219.388 183.608L215.026 187.161L217.969 190.165L219.388 183.608Z" stroke="#263238" stroke-width="0.5" stroke-linecap="round" stroke-linejoin="round"/>
<path d="M361.37 178.448L363.77 172.979L359.933 171.891L361.37 178.448Z" stroke="#263238" stroke-width="0.5" stroke-linecap="round" stroke-linejoin="round"/>
<path d="M333.575 202.27L335.975 196.801L332.138 195.714L333.575 202.27Z" stroke="#263238" stroke-width="0.5" stroke-linecap="round" stroke-linejoin="round"/>
<path d="M347.696 203.917L343.333 207.47L346.277 210.484L347.696 203.917Z" stroke="#263238" stroke-width="0.5" stroke-linecap="round" stroke-linejoin="round"/>
<path d="M433.421 82.1412L429.059 85.6941L432.002 88.6981L433.421 82.1412Z" stroke="#263238" stroke-width="0.5" stroke-linecap="round" stroke-linejoin="round"/>
<path d="M128.529 220.494L124.71 216.203L122.607 220.015L128.529 220.494Z" stroke="#263238" stroke-width="0.5" stroke-linecap="round" stroke-linejoin="round"/>
<path d="M165.435 217.64L161.625 213.348L159.513 217.161L165.435 217.64Z" stroke="#263238" stroke-width="0.5" stroke-linecap="round" stroke-linejoin="round"/>
<path d="M143.553 216.282L145.953 210.823L142.116 209.726L143.553 216.282Z" stroke="#263238" stroke-width="0.5" stroke-linecap="round" stroke-linejoin="round"/>
<path d="M150.096 198.678L153.828 203.069L156.001 199.306L150.096 198.678Z" stroke="#263238" stroke-width="0.5" stroke-linecap="round" stroke-linejoin="round"/>
<path d="M72.7192 350.733L76.451 355.124L78.6235 351.362L72.7192 350.733Z" stroke="#263238" stroke-width="0.5" stroke-linecap="round" stroke-linejoin="round"/>
<path d="M101.242 344.995L96.8794 348.557L99.8228 351.561L101.242 344.995Z" stroke="#263238" stroke-width="0.5" stroke-linecap="round" stroke-linejoin="round"/>
<path d="M129.94 172.909L125.586 176.462L128.529 179.476L129.94 172.909Z" stroke="#263238" stroke-width="0.5" stroke-linecap="round" stroke-linejoin="round"/>
<path d="M273.271 326.003L269.46 321.701L267.358 325.514L273.271 326.003Z" stroke="#263238" stroke-width="0.5" stroke-linecap="round" stroke-linejoin="round"/>
<path d="M230.25 314.845L232.651 309.386L228.814 308.288L230.25 314.845Z" stroke="#263238" stroke-width="0.5" stroke-linecap="round" stroke-linejoin="round"/>
<path d="M193.704 331.581L196.104 326.122L192.267 325.025L193.704 331.581Z" stroke="#263238" stroke-width="0.5" stroke-linecap="round" stroke-linejoin="round"/>
<path d="M247.753 323.757L243.399 327.31L246.343 330.314L247.753 323.757Z" stroke="#263238" stroke-width="0.5" stroke-linecap="round" stroke-linejoin="round"/>
<path d="M215.639 315.973L218.582 318.977" stroke="#263238" stroke-width="0.5" stroke-linecap="round" stroke-linejoin="round"/>
<path d="M230.426 346.242L234.236 350.533L236.347 346.721L230.426 346.242Z" stroke="#263238" stroke-width="0.5" stroke-linecap="round" stroke-linejoin="round"/>
<path d="M309.607 369.006L305.884 364.625L303.703 368.378L309.607 369.006Z" stroke="#263238" stroke-width="0.5" stroke-linecap="round" stroke-linejoin="round"/>
<path d="M287.751 370.643L284.028 366.252L281.847 370.014L287.751 370.643Z" stroke="#263238" stroke-width="0.5" stroke-linecap="round" stroke-linejoin="round"/>
<path d="M256.215 354.316L252.492 349.925L250.311 353.687L256.215 354.316Z" stroke="#263238" stroke-width="0.5" stroke-linecap="round" stroke-linejoin="round"/>
<path d="M334.836 351.072L339.199 347.519L336.255 344.505L334.836 351.072Z" stroke="#263238" stroke-width="0.5" stroke-linecap="round" stroke-linejoin="round"/>
<path d="M177.401 360.274L175.01 365.733L178.847 366.821L177.401 360.274Z" stroke="#263238" stroke-width="0.5" stroke-linecap="round" stroke-linejoin="round"/>
<path d="M219.029 372.05L216.629 377.509L220.466 378.597L219.029 372.05Z" stroke="#263238" stroke-width="0.5" stroke-linecap="round" stroke-linejoin="round"/>
<path d="M205.679 353.318L201.947 348.927L199.774 352.689L205.679 353.318Z" stroke="#263238" stroke-width="0.5" stroke-linecap="round" stroke-linejoin="round"/>
<path d="M252.729 384.984L257.082 381.431L254.139 378.417L252.729 384.984Z" stroke="#263238" stroke-width="0.5" stroke-linecap="round" stroke-linejoin="round"/>
<path d="M274.69 378.208L270.327 381.771L273.271 384.775L274.69 378.208Z" stroke="#263238" stroke-width="0.5" stroke-linecap="round" stroke-linejoin="round"/>
<path d="M299.884 189.336L295.521 192.889L298.465 195.893L299.884 189.336Z" stroke="#263238" stroke-width="0.5" stroke-linecap="round" stroke-linejoin="round"/>
<path d="M464.44 348.208L468.803 344.655L465.859 341.641L464.44 348.208Z" stroke="#263238" stroke-width="0.5" stroke-linecap="round" stroke-linejoin="round"/>
<path d="M451.379 355.773L455.111 360.164L457.292 356.402L451.379 355.773Z" stroke="#263238" stroke-width="0.5" stroke-linecap="round" stroke-linejoin="round"/>
<path d="M547.897 330.553L550.297 325.084L546.46 323.997L547.897 330.553Z" stroke="#263238" stroke-width="0.5" stroke-linecap="round" stroke-linejoin="round"/>
<path d="M520.101 354.376L522.502 348.907L518.665 347.819L520.101 354.376Z" stroke="#263238" stroke-width="0.5" stroke-linecap="round" stroke-linejoin="round"/>
<path d="M534.222 356.022L529.86 359.585L532.803 362.589L534.222 356.022Z" stroke="#263238" stroke-width="0.5" stroke-linecap="round" stroke-linejoin="round"/>
<path d="M486.41 341.442L482.048 344.995L484.991 347.999L486.41 341.442Z" stroke="#263238" stroke-width="0.5" stroke-linecap="round" stroke-linejoin="round"/>
<path d="M127.671 247.181L131.481 251.482L133.584 247.67L127.671 247.181Z" stroke="#263238" stroke-width="0.5" stroke-linecap="round" stroke-linejoin="round"/>
<path d="M83.9058 368.477L87.7164 372.779L89.8275 368.966L83.9058 368.477Z" stroke="#263238" stroke-width="0.5" stroke-linecap="round" stroke-linejoin="round"/>
<path d="M207.597 255.474L205.197 260.943L209.034 262.031L207.597 255.474Z" stroke="#263238" stroke-width="0.5" stroke-linecap="round" stroke-linejoin="round"/>
<path d="M149.545 248.538L147.153 253.997L150.99 255.095L149.545 248.538Z" stroke="#263238" stroke-width="0.5" stroke-linecap="round" stroke-linejoin="round"/>
<path d="M231.959 259.556L229.567 265.025L233.404 266.113L231.959 259.556Z" stroke="#263238" stroke-width="0.5" stroke-linecap="round" stroke-linejoin="round"/>
<path d="M244.144 238.737L241.744 244.206L245.581 245.294L244.144 238.737Z" stroke="#263238" stroke-width="0.5" stroke-linecap="round" stroke-linejoin="round"/>
<path d="M118.271 309.116L114.54 304.725L112.358 308.488L118.271 309.116Z" stroke="#263238" stroke-width="0.5" stroke-linecap="round" stroke-linejoin="round"/>
<path d="M190.094 246.562L194.448 243.009L191.514 240.005L190.094 246.562Z" stroke="#263238" stroke-width="0.5" stroke-linecap="round" stroke-linejoin="round"/>
<path d="M74.2787 267.54L71.8872 273.009L75.7241 274.097L74.2787 267.54Z" stroke="#263238" stroke-width="0.5" stroke-linecap="round" stroke-linejoin="round"/>
<path d="M264.301 253.528L261.909 258.987L265.746 260.085L264.301 253.528Z" stroke="#263238" stroke-width="0.5" stroke-linecap="round" stroke-linejoin="round"/>
<path d="M346.715 264.546L344.323 270.015L348.16 271.103L346.715 264.546Z" stroke="#263238" stroke-width="0.5" stroke-linecap="round" stroke-linejoin="round"/>
<path d="M358.9 243.727L356.5 249.196L360.336 250.284L358.9 243.727Z" stroke="#263238" stroke-width="0.5" stroke-linecap="round" stroke-linejoin="round"/>
<path d="M257.757 271.133L254.034 266.741L251.853 270.504L257.757 271.133Z" stroke="#263238" stroke-width="0.5" stroke-linecap="round" stroke-linejoin="round"/>
<path d="M333.364 245.823L329.641 241.432L327.46 245.194L333.364 245.823Z" stroke="#263238" stroke-width="0.5" stroke-linecap="round" stroke-linejoin="round"/>
<path d="M190.094 286.092L194.448 285.334L191.514 284.685L190.094 286.092Z" stroke="#263238" stroke-width="0.5" stroke-linecap="round" stroke-linejoin="round"/>
<path d="M59.3778 47.0116C64.301 40.4182 69.1073 33.7648 73.7968 27.0516C66.2632 25.8074 58.75 24.4136 51.2573 22.87C53.8328 30.9272 56.5396 38.9744 59.3778 47.0116Z" fill="#0658F6" stroke="#263238" stroke-linecap="round" stroke-linejoin="round"/>
<path d="M91.1504 51.9318C95.7582 45.0456 100.252 38.1062 104.632 31.1135C97.04 30.3351 89.4802 29.3903 81.9524 28.2792C84.8958 36.1966 87.9618 44.0808 91.1504 51.9318Z" fill="#FFBB11" stroke="#263238" stroke-linecap="round" stroke-linejoin="round"/>
<path d="M123.028 54.9657C127.315 47.8134 131.476 40.6145 135.511 33.369C127.948 33.023 120.383 32.5174 112.814 31.8521C116.119 39.5965 119.524 47.3011 123.028 54.9657Z" fill="#0658F6" stroke="#263238" stroke-linecap="round" stroke-linejoin="round"/>
<path d="M155.037 56.0934C158.991 48.6949 162.819 41.2598 166.522 33.7881C158.93 33.9078 151.338 33.8646 143.746 33.6583C147.39 41.1766 151.154 48.6549 155.037 56.0934Z" fill="#FFBB11" stroke="#FFBB11" stroke-linecap="round" stroke-linejoin="round"/>
<path d="M187.029 55.325C190.638 47.7136 194.121 40.0622 197.479 32.371C189.887 32.9432 182.295 33.349 174.703 33.5885C178.698 40.8872 182.806 48.1327 187.029 55.325Z" fill="#0658F6" stroke="#263238" stroke-linecap="round" stroke-linejoin="round"/>
<path d="M218.959 52.6702C222.218 44.8459 225.351 36.995 228.358 29.1174C220.807 30.1487 213.247 31.007 205.679 31.6923C209.977 38.7381 214.404 45.7308 218.959 52.6702Z" fill="#FFBB11" stroke="#263238" stroke-linecap="round" stroke-linejoin="round"/>
<path d="M250.758 48.1094C253.678 40.1254 256.455 32.1014 259.088 24.0376C251.584 25.5013 244.062 26.8054 236.523 27.9498C241.148 34.7362 245.893 41.456 250.758 48.1094Z" fill="#0658F6" stroke="#263238" stroke-linecap="round" stroke-linejoin="round"/>
<path d="M282.373 41.6524C284.913 33.4888 287.328 25.3085 289.617 17.1116C282.171 19.0277 274.702 20.7842 267.209 22.381C272.15 28.868 277.204 35.2918 282.373 41.6524Z" fill="#FFBB11" stroke="#263238" stroke-linecap="round" stroke-linejoin="round"/>
<path d="M1.31665 9.896C103.974 41.8281 212.267 41.8281 314.925 9.896" stroke="#263238" stroke-linecap="round" stroke-linejoin="round"/>
<path d="M602.069 40.1854C596.813 33.898 591.7 27.5307 586.73 21.0836C594.211 19.407 601.669 17.5674 609.103 15.5647C606.89 23.7616 604.545 31.9685 602.069 40.1854Z" fill="#FFBB11" stroke="#263238" stroke-linecap="round" stroke-linejoin="round"/>
<path d="M570.498 47.0116C565.574 40.4182 560.768 33.7648 556.079 27.0516C563.612 25.8274 571.125 24.4335 578.618 22.87C576.043 30.9272 573.336 38.9744 570.498 47.0116Z" fill="white" stroke="#263238" stroke-linecap="round" stroke-linejoin="round"/>
<path d="M538.725 51.9318C534.117 45.0456 529.629 38.1062 525.261 31.1135C532.853 30.3351 540.407 29.3903 547.923 28.2792C544.98 36.1966 541.914 44.0808 538.725 51.9318Z" fill="#01C38E" stroke="#263238" stroke-linecap="round" stroke-linejoin="round"/>
<path d="M506.821 54.9657C502.541 47.8134 498.377 40.6145 494.329 33.369C501.921 33.043 509.513 32.5506 517.105 31.892C513.788 39.6098 510.36 47.3011 506.821 54.9657Z" fill="white" stroke="#263238" stroke-linecap="round" stroke-linejoin="round"/>
<path d="M474.838 56.0934C470.891 48.6949 467.063 41.2598 463.354 33.7881C470.946 33.9078 478.538 33.8646 486.13 33.6583C482.492 41.1766 478.728 48.6549 474.838 56.0934Z" fill="#FFBB11" stroke="#263238" stroke-linecap="round" stroke-linejoin="round"/>
<path d="M442.847 55.325C439.238 47.7136 435.754 40.0622 432.396 32.371C439.988 32.9432 447.58 33.349 455.172 33.5885C451.178 40.8872 447.069 48.1327 442.847 55.325Z" fill="white" stroke="#263238" stroke-linecap="round" stroke-linejoin="round"/>
<path d="M410.926 52.6702C407.661 44.8459 404.528 36.995 401.526 29.1174C409.066 30.1487 416.623 31.007 424.197 31.6923C419.893 38.7381 415.469 45.7308 410.926 52.6702Z" fill="#01C38E" stroke="#263238" stroke-linecap="round" stroke-linejoin="round"/>
<path d="M379.118 48.1094C376.198 40.1254 373.421 32.1014 370.787 24.0376C378.292 25.5013 385.813 26.8054 393.353 27.9498C388.728 34.7362 383.983 41.456 379.118 48.1094Z" fill="white" stroke="#263238" stroke-linecap="round" stroke-linejoin="round"/>
<path d="M347.503 41.6524C344.963 33.4888 342.554 25.3085 340.276 17.1116C347.722 19.0277 355.191 20.7842 362.684 22.381C357.744 28.868 352.683 35.2918 347.503 41.6524Z" fill="#FFBB11" stroke="#263238" stroke-linecap="round" stroke-linejoin="round"/>
<path d="M628.559 9.896C525.902 41.8301 417.608 41.8301 314.951 9.896" stroke="#FFBB11" stroke-linecap="round" stroke-linejoin="round"/>
<path d="M35.6646 335.034H76.3197L73.2712 402.459H38.7218L35.6646 335.034Z" fill="white" stroke="#263238" stroke-linecap="round" stroke-linejoin="round"/>
<path d="M75.8292 345.943L76.3197 335.034H35.6646L36.1639 345.943H75.8292Z" fill="white" stroke="#263238" stroke-linecap="round" stroke-linejoin="round"/>
<path d="M60.9809 353.747C60.6743 353.747 60.3745 353.851 60.1195 354.045C59.8645 354.239 59.6658 354.515 59.5484 354.837C59.4311 355.16 59.4004 355.515 59.4602 355.858C59.52 356.201 59.6677 356.515 59.8846 356.762C60.1014 357.01 60.3777 357.178 60.6784 357.246C60.9792 357.314 61.291 357.279 61.5743 357.145C61.8576 357.012 62.0998 356.785 62.2701 356.495C62.4405 356.204 62.5315 355.863 62.5315 355.513C62.5315 355.045 62.3681 354.596 62.0773 354.264C61.7865 353.933 61.3922 353.747 60.9809 353.747Z" fill="white" stroke="#263238" stroke-linecap="round" stroke-linejoin="round"/>
<path d="M60.9809 365.324C60.6743 365.324 60.3745 365.427 60.1195 365.621C59.8645 365.816 59.6658 366.091 59.5484 366.414C59.4311 366.737 59.4004 367.092 59.4602 367.435C59.52 367.777 59.6677 368.092 59.8846 368.339C60.1014 368.586 60.3777 368.755 60.6784 368.823C60.9792 368.891 61.291 368.856 61.5743 368.722C61.8576 368.588 62.0998 368.362 62.2701 368.072C62.4405 367.781 62.5315 367.44 62.5315 367.09C62.5315 366.622 62.3681 366.172 62.0773 365.841C61.7865 365.51 61.3922 365.324 60.9809 365.324Z" fill="white" stroke="#263238" stroke-linecap="round" stroke-linejoin="round"/>
<path d="M64.187 348.078C63.8803 348.078 63.5806 348.182 63.3256 348.376C63.0706 348.57 62.8719 348.846 62.7545 349.169C62.6371 349.491 62.6064 349.847 62.6663 350.189C62.7261 350.532 62.8738 350.847 63.0906 351.094C63.3075 351.341 63.5837 351.509 63.8845 351.577C64.1853 351.645 64.497 351.61 64.7804 351.477C65.0637 351.343 65.3058 351.117 65.4762 350.826C65.6466 350.536 65.7375 350.194 65.7375 349.845C65.7375 349.376 65.5742 348.927 65.2834 348.596C64.9926 348.264 64.5982 348.078 64.187 348.078Z" fill="white" stroke="#263238" stroke-linecap="round" stroke-linejoin="round"/>
<path d="M60.9809 376.901C60.6743 376.901 60.3745 377.004 60.1195 377.198C59.8645 377.392 59.6658 377.668 59.5484 377.991C59.4311 378.314 59.4004 378.669 59.4602 379.012C59.52 379.354 59.6677 379.669 59.8846 379.916C60.1014 380.163 60.3777 380.331 60.6784 380.4C60.9792 380.468 61.291 380.433 61.5743 380.299C61.8576 380.165 62.0998 379.939 62.2701 379.648C62.4405 379.358 62.5315 379.016 62.5315 378.667C62.5315 378.198 62.3681 377.749 62.0773 377.418C61.7865 377.087 61.3922 376.901 60.9809 376.901Z" fill="white" stroke="#263238" stroke-linecap="round" stroke-linejoin="round"/>
<path d="M64.187 359.645C63.8803 359.645 63.5806 359.749 63.3256 359.943C63.0706 360.137 62.8719 360.413 62.7545 360.736C62.6371 361.058 62.6064 361.414 62.6663 361.756C62.7261 362.099 62.8738 362.414 63.0906 362.661C63.3075 362.908 63.5837 363.076 63.8845 363.144C64.1853 363.212 64.497 363.177 64.7804 363.044C65.0637 362.91 65.3058 362.683 65.4762 362.393C65.6466 362.102 65.7375 361.761 65.7375 361.412C65.7375 360.943 65.5742 360.494 65.2834 360.163C64.9926 359.831 64.5982 359.645 64.187 359.645Z" fill="white" stroke="#263238" stroke-linecap="round" stroke-linejoin="round"/>
<path d="M60.9809 388.477C60.6743 388.477 60.3745 388.581 60.1195 388.775C59.8645 388.969 59.6658 389.245 59.5484 389.568C59.4311 389.891 59.4004 390.246 59.4602 390.588C59.52 390.931 59.6677 391.246 59.8846 391.493C60.1014 391.74 60.3777 391.908 60.6784 391.976C60.9792 392.044 61.291 392.009 61.5743 391.876C61.8576 391.742 62.0998 391.516 62.2701 391.225C62.4405 390.935 62.5315 390.593 62.5315 390.244C62.5315 389.775 62.3681 389.326 62.0773 388.995C61.7865 388.663 61.3922 388.477 60.9809 388.477Z" fill="white" stroke="#263238" stroke-linecap="round" stroke-linejoin="round"/>
<path d="M70.7746 371.222C70.468 371.222 70.1682 371.326 69.9132 371.52C69.6582 371.714 69.4595 371.99 69.3421 372.312C69.2248 372.635 69.1941 372.99 69.2539 373.333C69.3137 373.676 69.4614 373.99 69.6783 374.237C69.8951 374.485 70.1714 374.653 70.4721 374.721C70.7729 374.789 71.0847 374.754 71.368 374.62C71.6513 374.487 71.8935 374.26 72.0638 373.97C72.2342 373.679 72.3252 373.338 72.3252 372.988C72.3252 372.52 72.1618 372.071 71.871 371.739C71.5802 371.408 71.1859 371.222 70.7746 371.222Z" fill="white" stroke="#263238" stroke-linecap="round" stroke-linejoin="round"/>
<path d="M70.7746 359.645C70.468 359.645 70.1682 359.749 69.9132 359.943C69.6582 360.137 69.4595 360.413 69.3421 360.736C69.2248 361.058 69.1941 361.414 69.2539 361.756C69.3137 362.099 69.4614 362.414 69.6783 362.661C69.8951 362.908 70.1714 363.076 70.4721 363.144C70.7729 363.212 71.0847 363.177 71.368 363.044C71.6513 362.91 71.8935 362.683 72.0638 362.393C72.2342 362.102 72.3252 361.761 72.3252 361.412C72.3252 360.943 72.1618 360.494 71.871 360.163C71.5802 359.831 71.1859 359.645 70.7746 359.645Z" fill="white" stroke="#263238" stroke-linecap="round" stroke-linejoin="round"/>
<path d="M74.156 376.901C73.7448 376.901 73.3504 377.087 73.0596 377.418C72.7688 377.749 72.6055 378.198 72.6055 378.667C72.6055 379.135 72.7688 379.585 73.0596 379.916C73.3504 380.247 73.7448 380.433 74.156 380.433H74.2699L74.4275 376.95C74.3387 376.923 74.2478 376.907 74.156 376.901Z" fill="white" stroke="#263238" stroke-linecap="round" stroke-linejoin="round"/>
<path d="M70.7746 382.799C70.468 382.799 70.1682 382.902 69.9132 383.096C69.6582 383.291 69.4595 383.566 69.3421 383.889C69.2248 384.212 69.1941 384.567 69.2539 384.91C69.3137 385.252 69.4614 385.567 69.6783 385.814C69.8951 386.061 70.1714 386.23 70.4721 386.298C70.7729 386.366 71.0847 386.331 71.368 386.197C71.6513 386.063 71.8935 385.837 72.0638 385.547C72.2342 385.256 72.3252 384.915 72.3252 384.565C72.3252 384.097 72.1618 383.647 71.871 383.316C71.5802 382.985 71.1859 382.799 70.7746 382.799Z" fill="white" stroke="#263238" stroke-linecap="round" stroke-linejoin="round"/>
<path d="M64.187 371.222C63.8803 371.222 63.5806 371.326 63.3256 371.52C63.0706 371.714 62.8719 371.99 62.7545 372.312C62.6371 372.635 62.6064 372.99 62.6663 373.333C62.7261 373.676 62.8738 373.99 63.0906 374.237C63.3075 374.485 63.5837 374.653 63.8845 374.721C64.1853 374.789 64.497 374.754 64.7804 374.62C65.0637 374.487 65.3058 374.26 65.4762 373.97C65.6466 373.679 65.7375 373.338 65.7375 372.988C65.7375 372.52 65.5742 372.071 65.2834 371.739C64.9926 371.408 64.5982 371.222 64.187 371.222Z" fill="white" stroke="#263238" stroke-linecap="round" stroke-linejoin="round"/>
<path d="M70.7746 348.078C70.468 348.078 70.1682 348.182 69.9132 348.376C69.6582 348.57 69.4595 348.846 69.3421 349.169C69.2248 349.491 69.1941 349.847 69.2539 350.189C69.3137 350.532 69.4614 350.847 69.6783 351.094C69.8951 351.341 70.1714 351.509 70.4721 351.577C70.7729 351.645 71.0847 351.61 71.368 351.477C71.6513 351.343 71.8935 351.117 72.0638 350.826C72.2342 350.536 72.3252 350.194 72.3252 349.845C72.3252 349.376 72.1618 348.927 71.871 348.596C71.5802 348.264 71.1859 348.078 70.7746 348.078Z" fill="white" stroke="#263238" stroke-linecap="round" stroke-linejoin="round"/>
<path d="M72.6055 390.244C72.6072 390.628 72.7195 391.001 72.9252 391.306C73.1309 391.611 73.4186 391.83 73.7443 391.93L73.9019 388.497C73.5391 388.566 73.2096 388.779 72.9721 389.099C72.7346 389.419 72.6047 389.825 72.6055 390.244Z" fill="white" stroke="#263238" stroke-linecap="round" stroke-linejoin="round"/>
<path d="M64.187 382.799C63.8803 382.799 63.5806 382.902 63.3256 383.096C63.0706 383.291 62.8719 383.566 62.7545 383.889C62.6371 384.212 62.6064 384.567 62.6663 384.91C62.7261 385.252 62.8738 385.567 63.0906 385.814C63.3075 386.061 63.5837 386.23 63.8845 386.298C64.1853 386.366 64.497 386.331 64.7804 386.197C65.0637 386.063 65.3058 385.837 65.4762 385.547C65.6466 385.256 65.7375 384.915 65.7375 384.565C65.7375 384.097 65.5742 383.647 65.2834 383.316C64.9926 382.985 64.5982 382.799 64.187 382.799Z" fill="white" stroke="#263238" stroke-linecap="round" stroke-linejoin="round"/>
<path d="M67.5686 357.28C68.4249 357.28 69.1191 356.489 69.1191 355.513C69.1191 354.538 68.4249 353.747 67.5686 353.747C66.7123 353.747 66.0181 354.538 66.0181 355.513C66.0181 356.489 66.7123 357.28 67.5686 357.28Z" fill="white" stroke="#263238" stroke-linecap="round" stroke-linejoin="round"/>
<path d="M67.5686 388.477C67.2619 388.477 66.9621 388.581 66.7072 388.775C66.4522 388.969 66.2534 389.245 66.1361 389.568C66.0187 389.891 65.988 390.246 66.0479 390.588C66.1077 390.931 66.2554 391.246 66.4722 391.493C66.689 391.74 66.9653 391.908 67.2661 391.976C67.5669 392.044 67.8786 392.009 68.1619 391.876C68.4453 391.742 68.6874 391.516 68.8578 391.225C69.0282 390.935 69.1191 390.593 69.1191 390.244C69.1191 389.775 68.9558 389.326 68.665 388.995C68.3742 388.663 67.9798 388.477 67.5686 388.477Z" fill="white" stroke="#263238" stroke-linecap="round" stroke-linejoin="round"/>
<path d="M67.5686 376.901C67.2619 376.901 66.9621 377.004 66.7072 377.198C66.4522 377.392 66.2534 377.668 66.1361 377.991C66.0187 378.314 65.988 378.669 66.0479 379.012C66.1077 379.354 66.2554 379.669 66.4722 379.916C66.689 380.163 66.9653 380.331 67.2661 380.4C67.5669 380.468 67.8786 380.433 68.1619 380.299C68.4453 380.165 68.6874 379.939 68.8578 379.648C69.0282 379.358 69.1191 379.016 69.1191 378.667C69.1191 378.198 68.9558 377.749 68.665 377.418C68.3742 377.087 67.9798 376.901 67.5686 376.901Z" fill="white" stroke="#263238" stroke-linecap="round" stroke-linejoin="round"/>
<path d="M67.5686 368.857C68.4249 368.857 69.1191 368.066 69.1191 367.09C69.1191 366.115 68.4249 365.324 67.5686 365.324C66.7123 365.324 66.0181 366.115 66.0181 367.09C66.0181 368.066 66.7123 368.857 67.5686 368.857Z" fill="white" stroke="#263238" stroke-linecap="round" stroke-linejoin="round"/>
<path d="M72.6055 367.09C72.6058 367.385 72.6711 367.676 72.7953 367.935C72.9195 368.194 73.0987 368.413 73.3165 368.573C73.5343 368.733 73.7837 368.828 74.0421 368.849C74.3005 368.871 74.5595 368.819 74.7955 368.697L74.9444 365.573C74.7048 365.414 74.4332 365.328 74.156 365.324C73.7448 365.324 73.3504 365.51 73.0596 365.841C72.7688 366.172 72.6055 366.622 72.6055 367.09Z" fill="white" stroke="#263238" stroke-linecap="round" stroke-linejoin="round"/>
<path d="M74.1561 353.747C73.8949 353.747 73.6379 353.821 73.4089 353.964C73.1798 354.107 72.9862 354.314 72.846 354.565C72.7057 354.816 72.6234 355.103 72.6067 355.4C72.59 355.697 72.6393 355.994 72.7502 356.263C72.8611 356.533 73.0299 356.766 73.241 356.941C73.4521 357.116 73.6986 357.228 73.9577 357.266C74.2168 357.303 74.48 357.266 74.7229 357.157C74.9659 357.047 75.1807 356.87 75.3475 356.641L75.4438 354.525C75.3011 354.286 75.1091 354.09 74.8847 353.954C74.6603 353.819 74.4102 353.747 74.1561 353.747Z" fill="white" stroke="#263238" stroke-linecap="round" stroke-linejoin="round"/>
<path d="M428.393 284.805H423.645V306.442H428.393V284.805Z" fill="#263238" stroke="#263238" stroke-linecap="round" stroke-linejoin="round"/>
<path d="M501.688 284.805H496.94V306.442H501.688V284.805Z" fill="#263238" stroke="#263238" stroke-linecap="round" stroke-linejoin="round"/>
<path d="M434.008 214.127H489.634C490.463 214.127 491.285 214.313 492.051 214.674C492.817 215.036 493.514 215.566 494.1 216.234C494.687 216.902 495.152 217.696 495.469 218.569C495.787 219.442 495.95 220.377 495.95 221.322V315.753H427.718V221.322C427.718 219.419 428.38 217.593 429.559 216.245C430.738 214.896 432.337 214.135 434.008 214.127Z" fill="#ABABAB" stroke="#263238" stroke-linecap="round" stroke-linejoin="round"/>
<path d="M465.132 378.028V311.182H458.886V377.599L458.659 377.779L426.308 392.659V397.05H431.354V394.006L459.386 389.316L459.902 397.05H463.643L464.16 389.366L491.894 394.006V397.05H496.94V392.659L465.132 378.028Z" fill="#263238" stroke="#263238" stroke-linecap="round" stroke-linejoin="round"/>
<path d="M471.781 318.577H451.922V326.591H471.781V318.577Z" fill="#263238" stroke="#263238" stroke-linecap="round" stroke-linejoin="round"/>
<path d="M499.165 301.142H424.538C423.213 301.142 422.138 302.367 422.138 303.877V316.312C422.138 317.822 423.213 319.046 424.538 319.046H499.165C500.49 319.046 501.565 317.822 501.565 316.312V303.877C501.565 302.367 500.49 301.142 499.165 301.142Z" fill="#ABABAB" stroke="#263238" stroke-linecap="round" stroke-linejoin="round"/>
<path d="M425.809 272.3H419.992C418.894 272.3 418.003 273.314 418.003 274.566V286.602C418.003 287.853 418.894 288.867 419.992 288.867H425.809C426.907 288.867 427.797 287.853 427.797 286.602V274.566C427.797 273.314 426.907 272.3 425.809 272.3Z" fill="#ABABAB" stroke="#263238" stroke-linecap="round" stroke-linejoin="round"/>
<path d="M503.405 272.3H497.588C496.49 272.3 495.6 273.314 495.6 274.566V286.602C495.6 287.853 496.49 288.867 497.588 288.867H503.405C504.503 288.867 505.393 287.853 505.393 286.602V274.566C505.393 273.314 504.503 272.3 503.405 272.3Z" fill="#ABABAB" stroke="#263238" stroke-linecap="round" stroke-linejoin="round"/>
<path d="M457.993 161.951L477.922 137.49L481.82 169.576L457.993 161.951Z" fill="#0658F6" stroke="#263238" stroke-linecap="round" stroke-linejoin="round"/>
<path d="M477.922 137.49L472.561 144.067L478.281 140.414L477.922 137.49Z" fill="#263238"/>
<path d="M479.122 147.331L478.728 144.117L465.106 153.229L458.886 160.854L479.122 147.331Z" fill="#263238"/>
<path d="M480.024 154.776L479.648 151.642L460.411 162.72L464.151 163.927L480.024 154.776Z" fill="#263238"/>
<path d="M480.594 159.436L466.148 164.556L470.8 166.053L480.953 162.44L480.594 159.436Z" fill="#263238"/>
<path d="M462.408 161.343C462.408 161.343 456.469 160.714 453.867 166.632C451.265 172.55 453.122 183.778 453.315 184.596C453.508 185.414 454.612 192.211 452.386 194.955C450.161 197.7 437.713 208.927 436.969 218.239C436.224 227.55 441.428 235.793 452.386 239.396C463.345 242.999 477.642 241.083 483.765 236.851C489.888 232.62 494.724 221.472 492.7 214.037C490.676 206.602 483.598 199.855 482.118 193.298C480.637 186.742 487.129 183.568 484.527 174.466C481.925 165.364 473.945 159.865 469.854 159.017C465.763 158.169 464.265 157.54 462.408 161.343Z" fill="#263238" stroke="#263238" stroke-linecap="round" stroke-linejoin="round"/>
<path d="M457.029 203.448C457.029 203.448 452.456 213.029 452.649 216.422C452.842 219.815 450.617 245.304 450.161 246.362C449.706 247.42 436.145 268.787 434.998 280.394C433.85 292.001 433.412 297.669 442.689 303.348C451.966 309.027 474.602 309.027 482.521 305.414C490.44 301.801 491.579 289.945 490.405 281.182C489.231 272.42 486.112 264.935 482.713 257.969C479.315 251.003 475.022 243.278 473.892 237.35C472.762 231.422 473.437 215.175 473.664 213.628C473.892 212.081 472 204.805 472 204.805L457.029 203.448Z" fill="#FFBB11" stroke="#263238" stroke-linecap="round" stroke-linejoin="round"/>
<path d="M454.795 182.55C454.795 182.55 451.642 180.005 451.826 184.027C451.825 185.114 452.084 186.18 452.575 187.112C453.066 188.044 453.77 188.806 454.612 189.316L454.795 182.55Z" fill="white" stroke="#263238" stroke-linecap="round" stroke-linejoin="round"/>
<path d="M464.826 166.851L454.612 176.562C454.612 176.562 453.552 186.452 454.795 191.532C455.339 193.767 457.581 200.205 460.744 201.262L459.815 204.256L457.029 203.408L454.795 216.532C457.4 217.45 460.075 218.089 462.785 218.438C465.938 218.648 469.652 218.857 469.652 218.857L472.07 204.686L469.442 203.408L469.81 201.083C469.81 201.083 473.945 197.64 474.83 195.165C476.502 190.469 477.261 185.416 477.055 180.354C471.995 177.176 467.773 172.514 464.826 166.851Z" fill="white" stroke="#263238" stroke-linecap="round" stroke-linejoin="round"/>
<path d="M460.743 201.332C462.41 201.507 464.087 201.507 465.754 201.332C465.754 201.332 461.856 203.877 459.815 204.326L460.743 201.332Z" fill="#263238" stroke="#263238" stroke-linecap="round" stroke-linejoin="round"/>
<path d="M463.529 177.43C463.868 177.721 464.132 178.108 464.296 178.554C464.459 179 464.515 179.487 464.458 179.965C464.333 181.026 464.017 182.045 463.529 182.959C463.529 182.959 460.744 181.692 460.744 183.598C460.799 184.798 461.265 185.926 462.04 186.742" stroke="#263238" stroke-linecap="round" stroke-linejoin="round"/>
<path d="M461.111 189.536C462.34 190.245 463.731 190.504 465.094 190.277C466.457 190.05 467.725 189.349 468.724 188.269C468.724 188.269 466.683 192.71 464.265 193.139C461.847 193.568 461.111 189.536 461.111 189.536Z" stroke="#263238" stroke-linecap="round" stroke-linejoin="round"/>
<path d="M468.724 181.452C469.429 181.352 470.145 181.433 470.82 181.689C471.494 181.944 472.11 182.368 472.622 182.929" stroke="#263238" stroke-linecap="round" stroke-linejoin="round"/>
<path d="M458.694 179.336C459.216 178.982 459.825 178.832 460.429 178.908C461.032 178.983 461.598 179.281 462.04 179.756" stroke="#263238" stroke-linecap="round" stroke-linejoin="round"/>
<path d="M457.397 176.562C457.397 176.562 458.694 174.027 462.04 175.714" stroke="#263238" stroke-linecap="round" stroke-linejoin="round"/>
<path d="M468.724 177.001C469.742 176.668 470.83 176.738 471.808 177.2C472.787 177.662 473.599 178.489 474.111 179.546" stroke="#263238" stroke-linecap="round" stroke-linejoin="round"/>
<path d="M476.932 186.951C476.932 186.951 479.157 183.778 479.56 186.951C479.963 190.125 478.071 192.66 476.056 192.869L476.932 186.951Z" fill="white" stroke="#263238" stroke-linecap="round" stroke-linejoin="round"/>
<path d="M472.07 204.726C472.07 204.726 488.968 195.414 489.897 194.746C490.825 194.077 494.084 186.901 494.084 186.901L504.727 195.993C504.727 195.993 501.784 200.244 501.416 200.883C501.048 201.522 482.836 218.478 482.836 218.478C482.836 218.478 477.642 240.055 477.458 241.322C477.274 242.59 493.795 265.663 495.1 266.502C496.405 267.34 499.182 269.047 498.254 270.314C497.325 271.582 493.243 276.661 487.672 277.081C482.1 277.5 476.713 269.675 474.111 263.757C472.428 259.824 471.31 255.609 470.8 251.272C470.432 249.156 468.759 220.165 469.504 215.514C470.162 211.861 471.02 208.258 472.07 204.726Z" fill="#2C334F" stroke="#263238" stroke-linecap="round" stroke-linejoin="round"/>
<path d="M473.822 204.785V219.396C473.822 225.384 471.545 238.358 471.545 238.997" stroke="#263238" stroke-linecap="round" stroke-linejoin="round"/>
<path d="M457.029 203.448C457.029 203.448 453.867 218.268 454.401 226.302C454.767 232.585 454.579 238.894 453.841 245.135C453.473 248.518 442.514 268.198 439.352 271.582C436.189 274.965 433.78 274.576 431.739 273.278C430.306 272.346 428.941 271.285 427.657 270.105C427.657 270.105 444.923 244.077 445.484 240.693C446.044 237.31 444.739 217.211 444.739 217.211C444.739 217.211 433.412 201.123 430.811 196.472C428.209 191.821 426.387 190.265 426.387 190.265L424.635 184.666L435.322 181.013C435.322 181.013 438.589 185.684 439.518 187.37C440.447 189.057 446.947 197.101 448.804 198.348C450.661 199.596 457.029 203.448 457.029 203.448Z" fill="#2C334F" stroke="#263238" stroke-linecap="round" stroke-linejoin="round"/>
<path d="M421.157 143.568C421.157 143.568 422.681 138.139 421.989 135.105C421.297 132.071 418.871 127.211 417.609 127.46C416.348 127.71 409.997 134.127 410.067 135.704C410.137 137.281 412.59 144.516 414.5 145.245C414.815 145.375 423.627 182.271 424.687 184.666C426.299 188.338 434.604 183.668 435.375 181.013C435.909 179.187 421.157 143.568 421.157 143.568Z" fill="white" stroke="#263238" stroke-linecap="round" stroke-linejoin="round"/>
<path d="M419.992 130.744C419.992 130.744 417.732 125.414 416.9 125.524C416.068 125.634 408.306 132.45 409.2 134.077C410.093 135.704 411.39 137.83 411.39 137.83C411.39 137.83 419.353 132.909 419.773 132.62C420.193 132.331 419.992 130.744 419.992 130.744Z" fill="white" stroke="#263238" stroke-linecap="round" stroke-linejoin="round"/>
<path d="M421.516 139.496C421.516 139.496 422.786 132.51 422.173 130.704C421.541 128.956 420.509 127.433 419.186 126.293C417.986 125.295 412.336 131.103 412.695 132.54C413.054 133.977 414.885 132.979 415.454 132.54C416.024 132.101 417.311 131.223 417.311 131.223C417.311 131.223 415.016 136.293 415.664 137.44C416.313 138.588 418.336 139.436 418.336 139.436" fill="white"/>
<path d="M421.516 139.496C421.516 139.496 422.786 132.51 422.173 130.704C421.541 128.956 420.509 127.433 419.186 126.293C417.986 125.295 412.336 131.103 412.695 132.54C413.054 133.977 414.885 132.979 415.454 132.54C416.024 132.101 417.311 131.223 417.311 131.223C417.311 131.223 415.016 136.293 415.664 137.44C416.313 138.588 418.336 139.436 418.336 139.436" stroke="#263238" stroke-linecap="round" stroke-linejoin="round"/>
<path d="M455.032 203.388C455.032 203.388 451.169 208.987 450.818 213.997C450.468 219.007 453.446 233.199 453.446 233.199" stroke="#263238" stroke-linecap="round" stroke-linejoin="round"/>
<path d="M452.229 312.809C452.229 312.809 460.384 303.009 460.603 297.599C460.822 292.19 456.53 285.484 450.871 285.993C445.212 286.502 439.79 295.274 435.033 303.787C430.276 312.3 410.137 368.497 409.69 371.591C409.243 374.685 404.031 388.607 405.389 395.054C406.747 401.501 409.69 398.667 411.521 393.507C413.352 388.348 412.879 375.463 413.107 374.176C413.334 372.889 442.304 326.472 445.694 321.831C449.084 317.19 452.229 312.809 452.229 312.809Z" fill="white" stroke="#263238" stroke-linecap="round" stroke-linejoin="round"/>
<path d="M411.495 393.507C412.199 391.053 412.606 388.502 412.704 385.922L411.95 387.579L406.975 386.801L407.08 381.212C405.801 386.112 404.671 391.631 405.389 395.054C406.747 401.501 409.69 398.667 411.495 393.507Z" fill="#0658F6" stroke="#263238" stroke-linecap="round" stroke-linejoin="round"/>
<path d="M464.729 306.541C464.729 306.541 459.762 294.296 461.068 289.076C462.373 283.857 468.321 279.096 473.542 281.631C478.763 284.166 481.426 294.466 483.555 304.256C485.683 314.046 488.986 374.645 488.548 377.739C488.11 380.833 489.135 395.922 486.034 401.531C482.933 407.14 480.953 403.387 480.681 397.839C480.41 392.29 484.457 380.244 484.606 378.946C484.755 377.649 470.327 323.118 468.417 317.48C466.508 311.841 464.729 306.541 464.729 306.541Z" fill="white" stroke="#263238" stroke-linecap="round" stroke-linejoin="round"/>
<path d="M480.681 397.839C480.707 395.258 481.04 392.693 481.671 390.214L481.916 392.06L486.848 393.138L488.32 387.799C488.162 392.908 487.681 398.557 486.034 401.531C482.941 407.15 480.953 403.387 480.681 397.839Z" fill="#0658F6" stroke="#263238" stroke-linecap="round" stroke-linejoin="round"/>
<path d="M504.692 146.143C504.692 146.143 503.615 149.816 501.898 161.562C500.181 173.309 492.875 185.045 493.138 190.185C493.401 195.324 495.284 200.714 500.225 200.225C505.166 199.736 506.453 195.085 507.96 185.784C509.467 176.482 509.458 153.977 509.887 151.772C510.316 149.566 510.763 148.099 510.763 148.099L504.692 146.143Z" fill="white" stroke="#263238" stroke-linecap="round" stroke-linejoin="round"/>
<path d="M512.997 150.464H502.362L501.031 126.443H514.328L512.997 150.464Z" fill="#0658F6" stroke="#263238" stroke-linecap="round" stroke-linejoin="round"/>
<path d="M501.688 138.399L514.153 129.596L514.328 126.443H513.636L501.504 135.005L501.688 138.399Z" fill="white" stroke="#263238" stroke-linecap="round" stroke-linejoin="round"/>
<path d="M513.444 142.42L502.354 150.285L502.362 150.464H507.066L513.242 146.093L513.444 142.42Z" fill="white" stroke="#263238" stroke-linecap="round" stroke-linejoin="round"/>
<path d="M513.715 137.41L513.925 133.658L501.933 142.77L502.126 146.223L513.715 137.41Z" fill="white" stroke="#263238" stroke-linecap="round" stroke-linejoin="round"/>
<path d="M514.241 127.161H501.162C500.963 127.158 500.773 127.067 500.632 126.907C500.491 126.746 500.411 126.53 500.409 126.303C500.411 126.076 500.491 125.859 500.632 125.699C500.773 125.538 500.963 125.447 501.162 125.444H514.241C514.439 125.447 514.629 125.539 514.768 125.699C514.907 125.86 514.985 126.077 514.985 126.303C514.985 126.529 514.907 126.745 514.768 126.906C514.629 127.067 514.439 127.158 514.241 127.161Z" fill="white" stroke="#263238" stroke-linecap="round" stroke-linejoin="round"/>
<path d="M516.615 132.45C516.615 132.45 513.409 126.702 513.409 129.317C513.483 131.424 513.714 133.521 514.101 135.584C514.788 135.517 515.429 135.157 515.895 134.576C516.36 133.996 516.617 133.237 516.615 132.45Z" fill="white" stroke="#263238" stroke-linecap="round" stroke-linejoin="round"/>
<path d="M516.168 135.933C516.168 135.933 512.953 130.185 512.953 132.8C513.027 134.908 513.259 137.004 513.645 139.067C514.334 139.002 514.977 138.643 515.445 138.062C515.912 137.482 516.17 136.722 516.168 135.933Z" fill="white" stroke="#263238" stroke-linecap="round" stroke-linejoin="round"/>
<path d="M516.054 138.508C516.054 138.508 512.839 132.77 512.839 135.375C512.913 137.486 513.144 139.586 513.531 141.652C514.221 141.582 514.862 141.221 515.329 140.639C515.796 140.057 516.055 139.297 516.054 138.508Z" fill="white" stroke="#263238" stroke-linecap="round" stroke-linejoin="round"/>
<path d="M515.607 141.223C515.607 141.223 512.725 136.063 512.725 138.408C512.791 140.302 513 142.185 513.347 144.037C513.965 143.977 514.541 143.654 514.96 143.133C515.378 142.611 515.61 141.93 515.607 141.223Z" fill="white" stroke="#263238" stroke-linecap="round" stroke-linejoin="round"/>
<path d="M501.46 138.099C501.46 138.099 499.761 135.105 499.761 134.107C499.883 132.44 499.806 130.761 499.533 129.117C499.077 126.273 501.004 126.273 501.004 128.339L501.46 138.099Z" fill="white" stroke="#263238" stroke-linecap="round" stroke-linejoin="round"/>
<path d="M526.759 261.462C526.759 261.462 524.718 263.568 523.255 263.568C521.792 263.568 521.775 259.975 522.703 257.869C523.632 255.763 526.041 259.136 526.041 259.136L526.768 261.432L526.409 256.182C526.409 256.182 524.184 253.019 521.591 254.286C518.998 255.554 519.374 263.777 520.855 265.883C522.335 267.989 525.296 267.36 526.987 264.196L526.759 261.462Z" fill="white" stroke="#263238" stroke-linecap="round" stroke-linejoin="round"/>
<path d="M538.296 249.007H524.105V271.871H538.296V249.007Z" fill="white" stroke="#263238" stroke-linecap="round" stroke-linejoin="round"/>
<path d="M499.831 269.136H433.552V272.25H499.831V269.136Z" fill="white" stroke="#263238" stroke-linecap="round" stroke-linejoin="round"/>
<path d="M448.453 196.771H368.711V257.989H448.453V196.771Z" fill="#01C38E" stroke="#263238" stroke-linecap="round" stroke-linejoin="round"/>
<path d="M431.231 268.807H398.959V272.26H431.231V268.807Z" fill="#ABABAB" stroke="#263238" stroke-linecap="round" stroke-linejoin="round"/>
<path d="M418.196 232.62H398.959V272.25H418.196V232.62Z" fill="white" stroke="#263238" stroke-linecap="round" stroke-linejoin="round"/>
<path d="M549.552 275.344H367.984V298.697H549.552V275.344Z" fill="white" stroke="#263238" stroke-linecap="round" stroke-linejoin="round"/>
<path d="M549.552 275.344H367.984V281.552H549.552V275.344Z" fill="#263238" stroke="#263238" stroke-linecap="round" stroke-linejoin="round"/>
<path d="M370.209 402.459H367.222L366.223 275.005H371.199L370.209 402.459Z" fill="white" stroke="#263238" stroke-linecap="round" stroke-linejoin="round"/>
<path d="M550.604 402.459H547.616L546.627 275.005H551.602L550.604 402.459Z" fill="white" stroke="#263238" stroke-linecap="round" stroke-linejoin="round"/>
<path d="M554.379 271.941H363.201V277.21H554.379V271.941Z" fill="white" stroke="#263238" stroke-linecap="round" stroke-linejoin="round"/>
<path d="M370.069 153.668L381.448 196.921" stroke="#263238" stroke-linecap="round" stroke-linejoin="round"/>
<path d="M379.17 114.257C382.771 127.949 379.933 150.295 370.069 153.668C360.205 157.041 347.039 140.155 343.438 126.462C339.838 112.77 344.91 98.9376 354.783 95.5244C364.655 92.1112 375.57 100.564 379.17 114.257Z" fill="#0658F6" stroke="#263238" stroke-linecap="round" stroke-linejoin="round"/>
<path d="M393.09 153.758L381.448 196.921" stroke="#263238" stroke-linecap="round" stroke-linejoin="round"/>
<path d="M419.878 126.752C416.19 140.414 402.936 157.201 393.09 153.758C383.244 150.315 380.572 127.939 384.216 114.277C387.86 100.614 398.872 92.3208 408.744 95.7739C418.617 99.2269 423.557 113.089 419.878 126.752Z" fill="#B4CDFC" stroke="#263238" stroke-linecap="round" stroke-linejoin="round"/>
<path d="M269.101 105.594L267.016 72.311L290.256 90.9537L269.101 105.594Z" fill="#0658F6" stroke="#263238" stroke-linecap="round" stroke-linejoin="round"/>
<path d="M267.016 72.311L267.577 81.2631L269.127 73.9977L267.016 72.311Z" fill="#263238"/>
<path d="M274.138 78.0196L271.808 76.1533L268.356 93.7181L269.013 104.107L274.138 78.0196Z" fill="#263238"/>
<path d="M279.534 82.3509L277.265 80.5345L271.247 104.107L274.576 101.812L279.534 82.3509Z" fill="#263238"/>
<path d="M282.915 85.0654L276.345 100.584L280.471 97.73L285.088 86.8119L282.915 85.0654Z" fill="#263238"/>
<path d="M241.481 73.4886C241.481 73.4886 242.865 69.0874 242.033 66.0934C241.2 63.0994 238.581 58.3888 237.337 58.6982C236.093 59.0076 230.014 65.784 230.154 67.3509C230.294 68.9177 233.054 76.0135 234.99 76.6423C236.925 77.271 241.481 73.4886 241.481 73.4886Z" fill="white" stroke="#263238" stroke-linecap="round" stroke-linejoin="round"/>
<path d="M239.825 61.8419C239.825 61.8419 237.337 56.6523 236.505 56.8519C235.673 57.0515 228.218 64.2471 229.182 65.8339C230.145 67.4207 231.538 69.4467 231.538 69.4467C231.538 69.4467 239.273 64.0974 239.685 63.788C240.097 63.4786 239.825 61.8419 239.825 61.8419Z" fill="white" stroke="#263238" stroke-linecap="round" stroke-linejoin="round"/>
<path d="M241.752 70.5046C241.752 70.5046 242.725 63.4188 242.033 61.6922C241.322 59.979 240.225 58.5118 238.853 57.4408C237.609 56.4428 232.221 62.6304 232.642 64.0475C233.062 65.4647 234.849 64.3669 235.401 63.8878C235.953 63.4088 237.197 62.4807 237.197 62.4807C237.197 62.4807 235.13 67.6703 235.813 68.7681C236.496 69.8659 238.581 70.6643 238.581 70.6643" fill="white"/>
<path d="M241.752 70.5046C241.752 70.5046 242.725 63.4188 242.033 61.6922C241.322 59.979 240.225 58.5118 238.853 57.4408C237.609 56.4428 232.221 62.6304 232.642 64.0475C233.062 65.4647 234.849 64.3669 235.401 63.8878C235.953 63.4088 237.197 62.4807 237.197 62.4807C237.197 62.4807 235.13 67.6703 235.813 68.7681C236.496 69.8659 238.581 70.6643 238.581 70.6643" stroke="#263238" stroke-linecap="round" stroke-linejoin="round"/>
<path d="M243.136 78.5285L241.481 73.5385C241.481 73.5385 236.645 71.9716 234.99 76.6922L236.917 81.8818C237.658 80.8168 238.605 79.9605 239.683 79.3791C240.762 78.7976 241.943 78.5066 243.136 78.5285Z" fill="white" stroke="#263238" stroke-linecap="round" stroke-linejoin="round"/>
<path d="M326.024 69.5565C326.024 69.5565 323.098 66.273 322.695 63.1792C322.292 60.0854 322.861 54.5166 324.096 54.1972C325.332 53.8779 333.391 56.9417 333.873 58.4288C334.354 59.9158 334.573 67.6503 333.067 69.1772C331.56 70.7042 326.024 69.5565 326.024 69.5565Z" fill="white" stroke="#263238" stroke-linecap="round" stroke-linejoin="round"/>
<path d="M323.063 58.2492C323.063 58.2492 323.317 52.341 324.123 52.0715C324.929 51.8021 334.407 54.6264 334.144 56.5226C333.881 58.4188 333.408 60.9438 333.408 60.9438C333.408 60.9438 324.403 59.9458 323.912 59.8859C323.422 59.826 323.063 58.2492 323.063 58.2492Z" fill="white" stroke="#263238" stroke-linecap="round" stroke-linejoin="round"/>
<path d="M324.631 67.0016C324.631 67.0016 321.057 61.1134 321.013 59.2072C320.998 57.3147 321.424 55.4514 322.248 53.808C323.01 52.341 330.202 55.1953 330.369 56.6723C330.535 58.1493 328.503 58.0495 327.819 57.8998C327.136 57.7501 325.664 57.5206 325.664 57.5206C325.664 57.5206 329.519 61.1633 329.317 62.5106C329.116 63.8579 327.565 65.5844 327.565 65.5844" fill="white"/>
<path d="M324.631 67.0016C324.631 67.0016 321.057 61.1134 321.013 59.2072C320.998 57.3147 321.424 55.4514 322.248 53.808C323.01 52.341 330.202 55.1953 330.369 56.6723C330.535 58.1493 328.503 58.0495 327.819 57.8998C327.136 57.7501 325.664 57.5206 325.664 57.5206C325.664 57.5206 329.519 61.1633 329.317 62.5106C329.116 63.8579 327.565 65.5844 327.565 65.5844" stroke="#263238" stroke-linecap="round" stroke-linejoin="round"/>
<path d="M332.611 74.9956L333.04 69.6363C333.04 69.6363 329.291 65.8239 326.032 69.2471L325.787 74.8858C326.856 74.309 328.027 74.019 329.21 74.038C330.393 74.0571 331.557 74.3846 332.611 74.9956Z" fill="white" stroke="#263238" stroke-linecap="round" stroke-linejoin="round"/>
<path d="M284.3 136.123C284.3 136.123 279.044 134.127 275.601 132.5C272.158 130.874 264.265 116.532 261.918 112.89C259.57 109.247 248.112 84.8259 245.484 80.7541C242.856 76.6823 238.301 76.7621 236.645 79.9657C234.99 83.1693 243.417 109.237 249.076 121.353C254.735 133.468 269.101 161.003 272.009 164.317C273.646 166.121 275.042 168.189 276.153 170.454C276.153 170.454 278.781 199.716 279.324 204.127C279.867 208.538 277.808 208.219 279.464 211.053C281.12 213.887 294.663 218.448 305.569 216.562C316.475 214.676 319.935 209.476 319.664 206.332C319.449 204.161 319.124 202.005 318.691 199.875L318.14 152.191C318.14 152.191 329.054 122.93 331.28 109.387C333.505 95.8439 334.162 76.5725 332.085 72.9497C330.009 69.327 325.875 71.3729 324.902 73.9477C323.93 76.5226 319.252 100.405 316.764 108.698C314.276 116.991 308.74 127.66 306.112 131.093C304.652 133.101 302.671 134.53 300.453 135.175C300.453 135.175 291.071 138.169 284.3 136.123Z" fill="#67C05C" stroke="#263238" stroke-linecap="round" stroke-linejoin="round"/>
<path d="M276.153 170.434L272.193 146.273" stroke="#263238" stroke-linecap="round" stroke-linejoin="round"/>
<path d="M275.382 166.223L269.408 149.906" stroke="#263238" stroke-linecap="round" stroke-linejoin="round"/>
<path d="M318.14 152.171L315.783 133.349" stroke="#263238" stroke-linecap="round" stroke-linejoin="round"/>
<path d="M317.369 145.135V129.496" stroke="#263238" stroke-linecap="round" stroke-linejoin="round"/>
<path d="M311 180.285C311 180.285 304.237 196.153 296.677 203.408" stroke="#263238" stroke-linecap="round" stroke-linejoin="round"/>
<path d="M300.26 193.438C300.26 193.438 294.68 202.281 291.702 204.776" stroke="#263238" stroke-linecap="round" stroke-linejoin="round"/>
<path d="M286.236 133.289C284.545 134.22 283.181 135.774 282.364 137.7C281.26 140.694 280.568 146.193 282.915 152.81C283.968 155.583 284.892 158.418 285.684 161.303C285.684 161.303 288.583 157.68 290.239 156.582C291.894 155.484 297.247 152.021 297.247 152.021C297.247 152.021 304.71 152.171 307.198 152.65C308.316 152.828 309.422 153.092 310.509 153.438C310.509 153.438 307.058 142.101 303.046 136.752C299.034 131.403 293.279 129.047 286.236 133.289Z" fill="white" stroke="#263238" stroke-linecap="round" stroke-linejoin="round"/>
<path d="M294.523 97.7201C294.523 97.7201 289.267 95.1952 284.711 95.9836C280.156 96.772 274.357 103.858 274.769 111.403C275.181 118.948 282.784 125.574 284.405 129.037C286.025 132.5 285.78 132.49 285.92 138.159C286.225 143.094 287.921 147.785 290.756 151.532C292.552 153.738 298.903 160.824 298.903 160.824C298.903 160.824 301.531 146.852 300.979 143.977C300.427 141.103 299.043 136.582 298.903 135.165C298.814 134.265 298.677 133.371 298.491 132.49C298.491 132.49 302.661 132.251 302.792 124.067C302.792 123.129 302.792 120.924 302.792 119.906C302.696 112.081 301.364 103.578 294.523 97.7201Z" fill="white" stroke="#263238" stroke-linecap="round" stroke-linejoin="round"/>
<path d="M277.808 122.121C277.808 122.121 281.269 118.958 282.241 116.752C282.662 115.754 281.199 114.067 281.54 111.353C281.733 109.886 282.329 108.948 282.241 107.67C282.11 105.904 280.664 106.932 280.708 105.435C280.848 100.874 288.172 97.8798 290.519 98.3588C292.867 98.8379 296.59 101.662 297.834 101.662C299.078 101.662 303.773 98.0395 303.09 94.4167C302.407 90.794 299.367 92.5305 297.571 92.0615C295.775 91.5924 299.638 87.9697 296.467 84.826C295.249 83.6635 293.691 83.0663 292.103 83.1532C290.516 83.2401 289.015 84.0048 287.9 85.295C286.656 87.0216 286.796 90.0155 284.72 89.8559C282.644 89.6962 280.025 88.5984 278.641 90.4846C277.257 92.3708 277.537 93.9477 276.985 95.0555C276.433 96.1632 269.977 98.6682 269.101 105.594C268.225 112.52 272.877 116.492 277.808 122.121Z" fill="#263238" stroke="#263238" stroke-linecap="round" stroke-linejoin="round"/>
<path d="M280.848 118.858C280.848 118.858 275.916 114.656 274.261 117.021C272.605 119.387 276.319 125.005 278.255 125.005C278.879 124.954 279.485 124.748 280.033 124.404C280.58 124.059 281.056 123.583 281.426 123.009" fill="white"/>
<path d="M280.848 118.858C280.848 118.858 275.916 114.656 274.261 117.021C272.605 119.387 276.319 125.005 278.255 125.005C278.879 124.954 279.485 124.748 280.033 124.404C280.58 124.059 281.056 123.583 281.426 123.009" stroke="#263238" stroke-linecap="round" stroke-linejoin="round"/>
<path d="M286.507 111.892C286.507 111.892 287.199 109.696 290.344 109.696" stroke="#263238" stroke-linecap="round" stroke-linejoin="round"/>
<path d="M285.132 107.959C285.132 107.959 285.955 105.125 289.407 104.646" stroke="#263238" stroke-linecap="round" stroke-linejoin="round"/>
<path d="M296.59 107.8C296.936 107.278 297.407 106.882 297.946 106.658C298.486 106.435 299.07 106.395 299.63 106.542" stroke="#263238" stroke-linecap="round" stroke-linejoin="round"/>
<path d="M293.848 103.239C294.257 102.495 294.877 101.932 295.605 101.645C296.334 101.358 297.126 101.364 297.851 101.662" stroke="#263238" stroke-linecap="round" stroke-linejoin="round"/>
<path d="M288.995 118.678C288.995 118.678 291.483 121.672 296.59 120.095C296.59 120.095 294.934 124.337 292.998 124.816C291.062 125.295 288.995 120.235 288.995 118.678Z" stroke="#263238" stroke-linecap="round" stroke-linejoin="round"/>
<path d="M293.244 105.445L299.498 112.121L296.178 115.015L296.765 118.129" fill="white"/>
<path d="M293.244 105.445L299.498 112.121L296.178 115.015L296.765 118.129" stroke="#263238" stroke-linecap="round" stroke-linejoin="round"/>
<path d="M298.526 132.5C298.526 132.5 294.934 133.608 293.419 133.129L290.931 132.351L299.91 140.534L298.526 132.5Z" fill="#263238" stroke="#263238" stroke-linecap="round" stroke-linejoin="round"/>
<path d="M265.431 239.266C265.431 239.266 260.429 232.221 258.834 230.624C257.24 229.027 254.288 229.945 252.921 231.991C251.555 234.037 250.197 238.129 249.514 239.496C248.83 240.863 244.512 246.771 244.739 249.476C244.967 252.181 245.615 255.614 248.147 254.705C250.679 253.797 252.991 249.177 256.399 247.131C259.807 245.085 261.453 247.131 261.453 247.131L265.431 239.266Z" fill="white" stroke="#263238" stroke-linecap="round" stroke-linejoin="round"/>
<path d="M252.264 239.316C253.923 236.038 255.843 232.941 258.002 230.065C257.083 229.768 256.107 229.792 255.201 230.136C254.295 230.48 253.501 231.126 252.921 231.991C251.555 233.987 250.197 238.129 249.514 239.496C248.83 240.863 244.512 246.771 244.739 249.476C244.792 250.119 244.874 250.759 244.985 251.392C247.254 245.085 249.312 245.264 252.264 239.316Z" fill="white" stroke="#263238" stroke-linecap="round" stroke-linejoin="round"/>
<path d="M301.653 300.005C297.845 294.626 293.649 289.619 289.109 285.035C282.74 278.917 260.648 246.043 260.648 246.043L265.028 237.65C265.028 237.65 283.538 259.416 289.906 264.177C294.741 267.806 299.391 271.745 303.834 275.973C305.429 277.56 309.415 285.953 308.617 290.484C307.82 295.015 306.226 300.683 301.653 300.005Z" fill="#263238" stroke="#263238" stroke-linecap="round" stroke-linejoin="round"/>
<path d="M241.542 245.584C241.542 245.584 235.769 241.053 233.579 237.879C231.389 234.705 228.209 235.155 226.817 237.201C225.424 239.246 221.245 248.538 219.449 253.069C217.654 257.6 217.461 265.544 218.258 267.35C219.055 269.156 220.649 266.901 221.245 265.354C221.841 263.807 228.744 256.452 229.742 255.314C230.781 254.336 231.915 253.498 233.124 252.819L237.101 255.314L241.542 245.584Z" fill="white" stroke="#263238" stroke-linecap="round" stroke-linejoin="round"/>
<path d="M218.635 267.879C218.635 265.883 218.994 262.011 220.79 256.063C222.542 250.324 228.06 240.264 230.662 235.684C229.961 235.505 229.23 235.552 228.55 235.82C227.871 236.088 227.271 236.566 226.817 237.201C225.424 239.197 221.245 248.538 219.449 253.069C217.654 257.6 217.461 265.544 218.258 267.35C218.343 267.559 218.473 267.741 218.635 267.879Z" fill="white" stroke="#263238" stroke-linecap="round" stroke-linejoin="round"/>
<path d="M300.453 285.943L298.228 252.839L295.442 255.334C295.442 255.334 286.087 304.536 284.3 306.122C282.513 307.709 277.134 302.729 272.36 299.556C267.586 296.382 236.531 256.921 235.568 256.013C234.604 255.105 240.141 242.869 240.938 243.318C241.735 243.767 269.197 274.835 269.197 274.835C269.197 274.835 272.579 246.492 274.173 234.476C275.443 226.003 277.306 217.66 279.744 209.526C279.744 209.526 296.266 216.322 305.42 214.057C314.574 211.791 319.655 206.302 319.655 206.302C319.655 206.302 318.56 218.139 319.156 241.722C319.751 265.304 314.977 290.015 313.024 297.949C311.07 305.883 310.037 306.572 308.048 306.112C306.06 305.653 301.478 299.126 299.884 296.821" fill="#263238"/>
<path d="M300.453 285.943L298.228 252.839L295.442 255.334C295.442 255.334 286.087 304.536 284.3 306.122C282.513 307.709 277.134 302.729 272.36 299.556C267.586 296.382 236.531 256.921 235.568 256.013C234.604 255.105 240.141 242.869 240.938 243.318C241.735 243.767 269.197 274.835 269.197 274.835C269.197 274.835 272.579 246.492 274.173 234.476C275.443 226.003 277.306 217.66 279.744 209.526C279.744 209.526 296.266 216.322 305.42 214.057C314.574 211.791 319.655 206.302 319.655 206.302C319.655 206.302 318.56 218.139 319.156 241.722C319.751 265.304 314.977 290.015 313.024 297.949C311.07 305.883 310.037 306.572 308.048 306.112C306.06 305.653 301.478 299.126 299.884 296.821" stroke="#263238" stroke-linecap="round" stroke-linejoin="round"/>
<path d="M137.902 284.805H133.155V306.442H137.902V284.805Z" fill="#263238" stroke="#263238" stroke-linecap="round" stroke-linejoin="round"/>
<path d="M211.197 284.805H206.449V306.442H211.197V284.805Z" fill="#263238" stroke="#263238" stroke-linecap="round" stroke-linejoin="round"/>
<path d="M143.544 214.127H199.17C200.845 214.127 202.451 214.885 203.636 216.234C204.82 217.584 205.486 219.414 205.486 221.322V315.753H137.237V221.322C137.237 219.416 137.901 217.587 139.083 216.238C140.266 214.889 141.87 214.129 143.544 214.127Z" fill="#ABABAB" stroke="#263238" stroke-linecap="round" stroke-linejoin="round"/>
<path d="M174.65 378.028V311.182H168.396V377.599L168.168 377.779L135.826 392.659V397.05H140.872V394.006L168.895 389.316L169.412 397.05H173.153L173.669 389.366L201.404 394.006V397.05H206.449V392.659L174.65 378.028Z" fill="#263238" stroke="#263238" stroke-linecap="round" stroke-linejoin="round"/>
<path d="M181.291 318.577H161.432V326.591H181.291V318.577Z" fill="#263238" stroke="#263238" stroke-linecap="round" stroke-linejoin="round"/>
<path d="M208.674 301.142H134.048C132.722 301.142 131.648 302.367 131.648 303.877V316.312C131.648 317.822 132.722 319.046 134.048 319.046H208.674C210 319.046 211.075 317.822 211.075 316.312V303.877C211.075 302.367 210 301.142 208.674 301.142Z" fill="#ABABAB" stroke="#263238" stroke-linecap="round" stroke-linejoin="round"/>
<path d="M135.318 272.3H129.501C128.403 272.3 127.513 273.314 127.513 274.566V286.602C127.513 287.853 128.403 288.867 129.501 288.867H135.318C136.416 288.867 137.307 287.853 137.307 286.602V274.566C137.307 273.314 136.416 272.3 135.318 272.3Z" fill="#ABABAB" stroke="#263238" stroke-linecap="round" stroke-linejoin="round"/>
<path d="M212.914 272.3H207.098C205.999 272.3 205.109 273.314 205.109 274.566V286.602C205.109 287.853 205.999 288.867 207.098 288.867H212.914C214.013 288.867 214.903 287.853 214.903 286.602V274.566C214.903 273.314 214.013 272.3 212.914 272.3Z" fill="#ABABAB" stroke="#263238" stroke-linecap="round" stroke-linejoin="round"/>
<path d="M207.115 269.136H140.837V272.25H207.115V269.136Z" fill="white" stroke="#263238" stroke-linecap="round" stroke-linejoin="round"/>
<path d="M155.738 196.771H75.9954V257.989H155.738V196.771Z" fill="#263238" stroke="#263238" stroke-linecap="round" stroke-linejoin="round"/>
<path d="M138.515 268.807H106.244V272.26H138.515V268.807Z" fill="#ABABAB" stroke="#263238" stroke-linecap="round" stroke-linejoin="round"/>
<path d="M125.481 232.62H106.244V272.25H125.481V232.62Z" fill="#ABABAB" stroke="#263238" stroke-linecap="round" stroke-linejoin="round"/>
<path d="M263.512 275.344H81.9434V298.697H263.512V275.344Z" fill="white" stroke="#263238" stroke-linecap="round" stroke-linejoin="round"/>
<path d="M263.512 275.344H81.9434V281.552H263.512V275.344Z" fill="#263238" stroke="#263238" stroke-linecap="round" stroke-linejoin="round"/>
<path d="M84.1684 402.459H81.1813L80.1826 275.005H85.1671L84.1684 402.459Z" fill="white" stroke="#263238" stroke-linecap="round" stroke-linejoin="round"/>
<path d="M264.572 402.459H261.585L260.586 275.005H265.562L264.572 402.459Z" fill="white" stroke="#263238" stroke-linecap="round" stroke-linejoin="round"/>
<path d="M268.347 271.941H77.1692V277.21H268.347V271.941Z" fill="white" stroke="#263238" stroke-linecap="round" stroke-linejoin="round"/>
<path d="M73.3938 153.668L84.773 196.921" stroke="#263238" stroke-linecap="round" stroke-linejoin="round"/>
<path d="M82.4954 114.257C86.0957 127.949 83.2575 150.295 73.3937 153.668C63.53 157.041 50.3637 140.155 46.7633 126.462C43.163 112.77 48.235 98.9376 58.1513 95.5244C68.0676 92.1112 78.895 100.564 82.4954 114.257Z" fill="#0658F6" stroke="#263238" stroke-linecap="round" stroke-linejoin="round"/>
<path d="M96.4062 153.758L84.7729 196.921" stroke="#263238" stroke-linecap="round" stroke-linejoin="round"/>
<path d="M123.203 126.752C119.515 140.414 106.261 157.201 96.4063 153.758C86.5513 150.315 83.8532 127.939 87.5412 114.277C91.2291 100.614 102.197 92.3208 112.069 95.7739C121.942 99.2269 126.882 113.089 123.203 126.752Z" fill="#F6A02A" stroke="#0658F6" stroke-linecap="round" stroke-linejoin="round"/>
<path d="M180.187 166.911C180.187 166.911 182.596 202.37 183.568 205.504C184.541 208.638 186.083 217.779 186.083 217.779C186.083 217.779 178.058 220.065 176.806 220.354C175.553 220.644 172.881 219.476 172.881 219.476C172.881 219.476 171.033 197.52 171.786 185.544C172.54 173.568 178.794 161.842 178.794 161.842L180.187 166.911Z" fill="white" stroke="#263238" stroke-miterlimit="10"/>
<path d="M196.104 271.931C196.104 271.931 193.082 272.28 192.329 271.671C191.575 271.063 192.329 270.673 192.705 270.673L194.457 270.504C194.457 270.504 191.54 268.947 191.829 268.508C192.118 268.069 193.196 268.158 193.196 268.158L193.8 267.909C193.8 267.909 191.794 266.562 192.136 266.302C192.477 266.043 194.448 266.522 194.448 266.522L194.142 260.474C194.55 260.478 194.953 260.584 195.321 260.786C195.689 260.988 196.013 261.28 196.271 261.642C197.147 262.899 197.024 265.833 196.875 267.949C196.761 269.307 196.502 270.644 196.104 271.931Z" fill="white" stroke="#263238" stroke-miterlimit="10"/>
<path d="M183.84 215.274L191.768 249.536L197.856 256.412C197.856 256.412 199.161 264.037 199.074 265.494C198.986 266.951 196.218 275.324 195.184 272.889C194.799 271.971 196.402 265.733 196.2 264.276C196.096 262.992 195.604 261.79 194.807 260.873C194.807 260.873 191.593 261.372 189.35 259.396C187.107 257.42 186.161 252.949 186.161 252.949L173.118 220.294L183.84 215.274Z" fill="white" stroke="#263238" stroke-miterlimit="10"/>
<path d="M194.492 258.837L194.808 260.833C194.808 260.833 196.472 270.623 194.983 270.813C193.494 271.003 192.241 266.961 192.241 266.961L191.575 263.318C191.575 263.318 188.422 260.035 187.695 258.129C186.957 255.667 186.337 253.162 185.837 250.624" fill="white"/>
<path d="M194.492 258.837L194.808 260.833C194.808 260.833 196.472 270.623 194.983 270.813C193.494 271.003 192.241 266.961 192.241 266.961L191.575 263.318C191.575 263.318 188.422 260.035 187.695 258.129C186.957 255.667 186.337 253.162 185.837 250.624" stroke="#263238" stroke-miterlimit="10"/>
<path d="M174.3 212.081L185.329 208.937L186.082 217.789L174.8 220.364L174.3 212.081Z" fill="white" stroke="#263238" stroke-miterlimit="10"/>
<path d="M174.984 197.809C174.835 198.438 176.017 227.67 176.149 230.943L124.465 229.326L124.158 203.837C124.158 203.837 122.564 173.897 122.546 167.38C122.529 160.863 126.094 151.792 129.782 149.237C133.47 146.682 146.426 139.087 146.426 139.087L164.568 138.089C164.568 138.089 175.746 148.229 176.832 149.626C177.918 151.023 182.158 162.53 180.713 170.474C179.267 178.418 175.141 197.141 174.984 197.809Z" fill="#01C38E" stroke="#263238" stroke-miterlimit="10"/>
<path d="M193.607 387.519L200.615 394.036C200.615 394.036 209.971 398.178 210.251 399.665C210.532 401.152 208.946 402.659 207.623 402.659H179.486C178.849 402.659 178.235 402.386 177.766 401.894C177.297 401.403 177.007 400.728 176.955 400.004C176.727 397.01 176.648 392.23 178.006 389.326C180.091 384.885 193.607 387.549 193.607 387.549" fill="white"/>
<path d="M193.607 387.519L200.615 394.036C200.615 394.036 209.971 398.178 210.251 399.665C210.532 401.152 208.946 402.659 207.623 402.659H179.486C178.849 402.659 178.235 402.386 177.766 401.894C177.297 401.403 177.007 400.728 176.955 400.004C176.727 397.01 176.648 392.23 178.006 389.326C180.091 384.885 193.607 387.549 193.607 387.549" stroke="#263238" stroke-linecap="round" stroke-linejoin="round"/>
<path d="M191.435 380.853L191.023 295.713L176.131 227.39L163.237 229.516C161.653 229.782 160.047 229.829 158.454 229.656L124.071 225.893L123.195 232.979C123.195 232.979 122.406 252.68 124.439 257.769C126.471 262.859 130.93 301.681 130.93 301.681L117.431 378.158L116.134 386.461L133.812 387.35L134.075 382.31L132.252 380.833V376.092H132.156C137.473 357.569 152.181 306.482 152.847 304.576C153.662 302.27 157.744 264.725 157.744 264.725L171.121 304.116L178.216 378.258L177.988 389.296L193.59 387.519V382.779L191.435 380.853Z" fill="#263238" stroke="#263238" stroke-linecap="round" stroke-linejoin="round"/>
<path d="M133.812 387.3L136.44 392.04L147.556 399.735C147.732 400.612 147.732 401.523 147.556 402.399C147.556 402.399 137.675 403.587 135.861 403.288C133.231 402.874 130.625 402.28 128.056 401.511C126.497 400.922 119.997 399.146 117.658 399.146C115.319 399.146 113.497 394.994 114.014 392.629C114.58 390.503 115.277 388.426 116.099 386.411L133.812 387.3Z" fill="white" stroke="#263238" stroke-linecap="round" stroke-linejoin="round"/>
<path d="M166.653 147.42L164.542 158.768L172.881 219.486L169.701 227.7L163.201 219.177L161.686 158.997L156.071 151.602L162.413 140.524L166.653 147.42Z" fill="#263238" stroke="#263238" stroke-miterlimit="10"/>
<path d="M169.561 144.426L171.366 152.909L165.724 149.157L169.561 144.426Z" fill="white" stroke="#263238" stroke-miterlimit="10"/>
<path d="M162.702 153.887L169.561 144.426L164.551 138.059L162.702 153.887Z" fill="white" stroke="#263238" stroke-miterlimit="10"/>
<path d="M167.608 97.4007C167.608 97.4007 173.88 106.383 173.512 107.74C173.241 109.051 173.074 110.387 173.013 111.732C173.013 111.732 178.128 116.193 177.839 117.361C177.55 118.528 174.642 120.943 174.642 120.943C174.642 120.943 175.036 135.913 173.538 136.911C172.04 137.909 168.729 136.911 168.729 136.911L162.702 153.877L157.192 145.025L148.537 133.987L149.142 129.916L148.441 125.744C145.573 123.687 143.388 120.6 142.23 116.971C140.478 111.123 141.748 99.9056 142.072 98.8677C142.396 97.8298 152.365 92.6702 156.193 90.2051C160.021 87.74 161.449 87.8099 161.975 88.9676C162.501 90.1252 162.045 85.0754 164.007 85.9037C165.97 86.7321 167.1 89.2869 166.854 90.1752C166.609 91.0634 170.446 87.251 170.98 89.3468C171.515 91.4426 170.332 96.1033 167.608 97.4007Z" fill="white" stroke="#263238" stroke-miterlimit="10"/>
<path d="M156.754 132.75C154.914 130.544 152.882 115.594 152.059 114.666C151.235 113.738 148.231 112.979 146.89 115.564C145.55 118.149 146.952 121.812 148.642 123.269C149.541 124.081 150.506 124.792 151.524 125.395L148.283 125.624C145.491 123.572 143.368 120.532 142.239 116.971C140.487 111.123 141.757 99.9056 142.081 98.8677C142.405 97.8298 152.374 92.6702 156.202 90.2051C160.03 87.74 161.458 87.8099 161.984 88.9676C162.509 90.1252 162.054 85.0754 164.016 85.9037C165.978 86.7321 167.108 89.2869 166.863 90.1752C166.618 91.0634 170.455 87.251 170.989 89.3468C171.523 91.4426 170.35 96.1033 167.634 97.4007C167.634 97.4007 157.928 99.7859 157.998 101.393C158.068 102.999 161.668 105.255 161.222 106.742C160.775 108.229 155.922 113.558 155.922 113.558L158.156 123.778C158.156 123.778 158.48 124.606 159.846 123.488C161.213 122.371 164.41 117.441 166.994 117.93C169.579 118.419 174.686 121.003 174.686 121.003C174.686 121.003 175.08 135.973 173.582 136.971C172.084 137.969 168.773 136.971 168.773 136.971C168.773 136.971 158.602 134.945 156.754 132.75Z" fill="#263238" stroke="#263238" stroke-miterlimit="10"/>
<path d="M168.93 112.79C169.132 113.568 169.509 114.127 169.806 114.047C170.104 113.967 170.139 113.249 169.938 112.461C169.736 111.672 169.36 111.123 169.062 111.203C168.764 111.283 168.729 112.001 168.93 112.79Z" fill="#263238"/>
<path d="M171.208 109.177C170.956 108.814 170.638 108.517 170.276 108.307C169.914 108.097 169.517 107.978 169.111 107.959C168.705 107.94 168.3 108.021 167.924 108.197C167.548 108.373 167.21 108.639 166.933 108.977" stroke="#263238" stroke-miterlimit="10"/>
<path d="M171.883 123.498L167.704 120.744C167.704 120.744 167.573 126.263 169.22 127.191C170.867 128.119 171.883 123.498 171.883 123.498Z" fill="white" stroke="#263238" stroke-miterlimit="10"/>
<path d="M161.125 148.139L162.702 153.888L157.709 149.925L161.125 148.139Z" fill="white" stroke="#263238" stroke-miterlimit="10"/>
<path d="M148.572 132.371L161.125 148.139L155.475 157.74L144.49 138.917L148.572 132.371Z" fill="white" stroke="#263238" stroke-miterlimit="10"/>
<path d="M195.158 189.237L184.593 190.654L180.818 166.961L194.019 165.205L195.158 189.237Z" fill="#0658F6" stroke="#263238" stroke-linecap="round" stroke-linejoin="round"/>
<path d="M182.701 178.748L194.177 168.359L194.019 165.205L193.336 165.295L182.167 175.404L182.701 178.748Z" fill="white" stroke="#263238" stroke-linecap="round" stroke-linejoin="round"/>
<path d="M194.781 181.193L184.567 190.474L184.593 190.654L189.271 190.025L194.956 184.865L194.781 181.193Z" fill="white" stroke="#263238" stroke-linecap="round" stroke-linejoin="round"/>
<path d="M194.545 176.183L194.37 172.42L183.385 183.059L183.928 186.462L194.545 176.183Z" fill="white" stroke="#263238" stroke-linecap="round" stroke-linejoin="round"/>
<path d="M193.984 165.923L180.993 167.66C180.895 167.674 180.796 167.665 180.701 167.635C180.606 167.605 180.517 167.554 180.439 167.484C180.362 167.414 180.298 167.328 180.25 167.229C180.202 167.131 180.172 167.023 180.161 166.911C180.143 166.796 180.147 166.678 180.171 166.565C180.195 166.451 180.239 166.345 180.301 166.251C180.362 166.158 180.44 166.08 180.529 166.021C180.618 165.963 180.716 165.927 180.818 165.913L193.809 164.177C194.006 164.151 194.204 164.216 194.36 164.356C194.516 164.496 194.617 164.701 194.641 164.925C194.658 165.04 194.655 165.158 194.631 165.272C194.607 165.385 194.563 165.492 194.501 165.586C194.44 165.679 194.362 165.757 194.273 165.815C194.184 165.873 194.086 165.91 193.984 165.923Z" fill="white" stroke="#263238" stroke-linecap="round" stroke-linejoin="round"/>
<path d="M151.349 199.516L175.422 196.522C175.422 196.522 177.104 189.776 176.876 184.835C176.648 179.895 178.33 175.145 179.083 174.776C179.837 174.406 188.036 170.005 189.105 170.664C190.174 171.323 192.083 172.36 191.558 173.847C191.032 175.335 187.686 174.157 187.686 174.157C187.686 174.157 183.612 176.991 183.192 177.221C182.771 177.45 187.782 175.903 188.702 176.362C189.622 176.822 195.438 177.181 196.104 178.718C196.77 180.255 195.78 180.714 195.78 180.714C195.78 180.714 196.866 183.019 195.368 183.768C193.87 184.516 190.375 184.137 189.814 184.167C189.254 184.197 185.61 187.63 185.102 187.939C184.593 188.249 189.578 186.053 190.445 186.243C191.312 186.432 194.589 187.33 194.685 188.069C194.781 188.808 192.477 189.656 191.672 189.746C190.866 189.835 188.238 190.654 188.238 190.654L185.102 194.646C185.102 194.646 183.945 199.895 182.544 201.382C181.556 202.373 180.517 203.296 179.434 204.147C179.083 204.466 161.195 209.885 160.039 210.314C158.883 210.744 149.256 214.975 149.256 214.975L151.349 199.516Z" fill="white" stroke="#263238" stroke-miterlimit="10"/>
<path d="M182.412 182.829C182.412 182.829 186.924 179.586 188.185 179.716C189.446 179.845 195.78 180.714 195.78 180.714" stroke="#263238" stroke-miterlimit="10"/>
<path d="M183.192 177.261L181.054 177.939" stroke="#263238" stroke-miterlimit="10"/>
<path d="M148.853 168.428C149.895 171.11 150.2 174.088 149.729 176.971C148.853 181.432 147.153 198.578 147.153 198.578L140.75 215.923C140.75 215.923 127.662 214.596 126.296 213.718C124.929 212.839 125.42 208.528 125.805 206.193C126.191 203.857 124.421 177.939 124.929 170.983C125.437 164.027 125.805 161.562 128.433 158.259" fill="#01C38E"/>
<path d="M148.853 168.428C149.895 171.11 150.2 174.088 149.729 176.971C148.853 181.432 147.153 198.578 147.153 198.578L140.75 215.923C140.75 215.923 127.662 214.596 126.296 213.718C124.929 212.839 125.42 208.528 125.805 206.193C126.191 203.857 124.421 177.939 124.929 170.983C125.437 164.027 125.805 161.562 128.433 158.259" stroke="#263238" stroke-miterlimit="10"/>
<path d="M141.223 197.201C141.223 197.201 133.137 200.195 132.804 200.294" stroke="#263238" stroke-miterlimit="10"/>
<path d="M130.036 194.257C130.036 194.257 141.275 195.654 142.037 196.103" stroke="#263238" stroke-miterlimit="10"/>
<path d="M128.967 184.935L143.833 196.572" stroke="#263238" stroke-miterlimit="10"/>
<path d="M143.833 196.572C143.833 196.572 152.698 196.712 152.83 198.917C152.961 201.123 151.078 216.881 150.587 217.171C150.097 217.46 140.452 217.899 139.646 216.991C138.84 216.083 140.986 198.089 141.223 197.201C141.459 196.312 143.833 196.572 143.833 196.572Z" fill="white" stroke="#263238" stroke-miterlimit="10"/>
</svg>
